<svg width="108" height="108" viewBox="0 0 108 108" fill="none" xmlns="http://www.w3.org/2000/svg">
<path d="M84.2857 99.493L84.4426 99.0182L84.2245 98.9461L84.0277 99.0647L84.2857 99.493ZM99.4286 84.3402L99.0073 84.0709L98.8786 84.2721L98.9543 84.4987L99.4286 84.3402ZM107 107L106.843 107.475C107.023 107.534 107.221 107.487 107.354 107.353C107.488 107.219 107.534 107.021 107.474 106.842L107 107ZM84.0277 99.0647C76.1452 103.814 63.9374 106.5 54 106.5V107.5C64.0663 107.5 76.4657 104.788 84.5437 99.9213L84.0277 99.0647ZM54 106.5C25.005 106.5 1.5 82.9955 1.5 54.0005H0.5C0.5 83.5478 24.4527 107.5 54 107.5V106.5ZM1.5 54.0005C1.5 25.0054 25.005 1.5 54 1.5V0.5C24.4527 0.5 0.5 24.4531 0.5 54.0005H1.5ZM54 1.5C82.995 1.5 106.5 25.0054 106.5 54.0005H107.5C107.5 24.4531 83.5473 0.5 54 0.5V1.5ZM106.5 54.0005C106.5 64.4468 104.2 75.9494 99.0073 84.0709L99.8498 84.6096C105.181 76.2707 107.5 64.5573 107.5 54.0005H106.5ZM84.1288 99.9677L106.843 107.475L107.157 106.525L84.4426 99.0182L84.1288 99.9677ZM107.474 106.842L99.9028 84.1818L98.9543 84.4987L106.526 107.158L107.474 106.842Z" fill="#FF9548"/>
</svg>
