<svg width="78" height="71" viewBox="0 0 78 71" fill="none" xmlns="http://www.w3.org/2000/svg">
<path d="M20.8528 10.7239C9.24592 15.1472 1 26.3812 1 39.5413C1 56.5673 14.8023 70.3696 31.8284 70.3696C41.5917 70.3696 50.2951 65.831 55.9436 58.7485" stroke="#FF9548" stroke-linecap="round" stroke-linejoin="round"/>
<path d="M26.518 6.78702C28.9223 6.99593 31.0635 7.619 33.107 8.96496C34.4689 9.86204 35.0155 11.2482 35.8708 12.5457C36.3896 13.3326 36.9631 13.7377 37.8279 14.0977C38.1902 14.2485 37.1836 13.2378 37.0832 13.1009C36.377 12.1383 36.0842 10.9494 35.507 9.91963C34.993 9.00278 34.284 8.90108 33.3453 8.59946C32.7711 8.41494 32.7004 8.35127 33.3459 8.42074C34.4049 8.53473 35.449 8.75367 36.5097 8.85855C38.2436 9.03 39.9319 8.74405 41.6489 8.56171C43.8917 8.32354 45.2552 8.32345 47.3 9.27958C47.8374 9.53083 57.9223 12.2153 58.5125 12.2609M58.5125 12.2609C58.9544 12.295 48.1423 9.5854 47.7435 9.39003C46.3281 8.69668 45.186 8.59808 43.6166 8.5562C41.7981 8.50766 39.7779 8.29941 37.9986 8.76989C36.8991 9.06063 39.8563 10.1215 40.8555 10.6859C41.6643 11.1428 43.1282 11.8378 43.704 12.7127C44.4728 13.8809 38.1719 8.95375 38.1634 10.2391C38.1492 12.3938 43.7907 21.4457 43.4871 23.5698C40.697 11.1058 53.4598 18.9325 43.3182 25.214C47.8913 13.9109 53.2546 15.1789 44.7506 21.3303C45.1975 19.6818 51.9714 12.904 44.4426 16.5619C44.0601 13.3665 57.969 11.8775 58.5125 12.2609ZM58.5125 12.2609C60.3903 13.5853 53.4522 19.6058 55.6326 19.8909C56.9174 20.0589 59.1011 20.3172 60.0761 21.3485C60.363 21.652 59.2465 21.1896 58.8563 21.0345C57.0857 20.3305 55.3064 19.4138 53.4598 18.9325C52.5237 18.6885 51.5205 18.8654 50.5707 18.8749C50.2521 18.8781 50.3787 18.8071 50.5389 19.2696C50.9848 20.5574 51.109 20.9469 51.5608 22.4124C52.2771 24.7355 58.4153 19.8244 58.4022 22.2376C58.3963 23.3156 58.0465 25.3091 58.171 26.3958C58.1918 26.5778 62.2894 17.2796 57.4913 24.6509C57.4864 23.5152 58.6571 25.0007 59.0993 23.9362C59.445 23.104 63.5264 24.1183 64.1202 24.3958C65.8432 25.2011 58.0733 29.688 59.6029 30.8239C60.2473 31.3025 69.9557 37.2879 69.5106 38.3699C69.0352 39.5254 64.5696 38.7843 60.8622 34.3573C59.9972 33.3244 59.2892 31.7123 58.0817 30.998C57.6296 30.7305 57.3794 30.8911 57.4128 31.3961C57.5548 33.5444 58.391 35.5925 58.8544 37.6822C59.3156 39.762 58.4116 41.8765 56.8117 43.2713C56.6815 43.3848 56.2167 43.5375 56.2996 43.3871C56.5856 42.8684 57.0712 42.484 57.4618 42.0365C58.163 41.2332 58.7155 40.7081 58.6366 39.6333C58.5136 37.9608 60.9096 40.4737 61.2605 40.7701C62.5412 41.8517 63.25 42.8693 63.967 44.3699C64.0234 44.4879 65.6957 48.3256 65.3204 48.2966C64.6845 48.2475 64.2864 47.5438 63.8187 47.1117C63.2229 46.5613 62.6051 45.987 62.0875 45.3603C61.2829 44.3861 59.1858 41.3145 60.1803 42.1029C61.2 42.9112 61.928 44.8662 62.2767 46.0336C62.7597 47.6501 61.5686 49.1039 60.7509 50.3863C60.4839 50.8051 58.511 53.3867 57.645 52.8088C57.5547 52.7485 58.4576 52.1493 58.5107 52.1108C59.2547 51.572 59.9857 50.9683 60.6631 50.3531C61.2465 49.8233 61.2028 49.5251 61.2928 48.8178C61.3323 48.507 61.659 49.3784 61.6787 49.4352C61.9373 50.182 62.0332 51.171 62.5291 51.8139C62.7864 52.1474 63.6964 52.6036 64.1295 52.5155C64.5153 52.4371 64.9174 51.6014 64.639 51.2764C64.2602 50.834 63.3272 50.7118 62.8043 50.4863C61.9558 50.1204 61.7344 50.3046 61.5412 51.2621C61.191 52.9978 59.939 54.1777 59.1023 55.6849" stroke="#FF9548" stroke-linecap="round" stroke-linejoin="round"/>
<path d="M19.3955 47.2412C19.3955 47.45 19.4371 47.6045 19.5202 47.7047C19.6054 47.8027 19.712 47.8518 19.8398 47.8518C19.9102 47.8518 19.972 47.8379 20.0253 47.8102C20.0807 47.7804 20.1382 47.7324 20.1979 47.6663V46.7808C20.1254 46.7169 20.0604 46.6732 20.0029 46.6498C19.9453 46.6263 19.8899 46.6146 19.8366 46.6146C19.7578 46.6146 19.6843 46.637 19.6161 46.6817C19.55 46.7244 19.4967 46.7926 19.4562 46.8863C19.4157 46.978 19.3955 47.0963 19.3955 47.2412ZM20.2299 48.0244L20.2075 47.8038C20.1521 47.8763 20.0881 47.9327 20.0157 47.9732C19.9453 48.0137 19.8601 48.034 19.7599 48.034C19.6299 48.034 19.5159 48.0009 19.4179 47.9349C19.3198 47.8688 19.2431 47.7772 19.1877 47.6599C19.1344 47.5406 19.1078 47.4031 19.1078 47.2476C19.1078 47.0835 19.1376 46.9407 19.1973 46.8192C19.257 46.6977 19.338 46.6029 19.4403 46.5347C19.5425 46.4665 19.6587 46.4324 19.7887 46.4324C19.8633 46.4324 19.9347 46.4473 20.0029 46.4771C20.0732 46.507 20.1414 46.5613 20.2075 46.6402V45.9177L19.9357 45.8857V45.7739L20.4344 45.63L20.4792 45.6556L20.4664 46.1095V47.839L20.7253 47.8773V47.9924L20.2299 48.0244Z" fill="#FF9548"/>
<path d="M21.0494 47.9924V47.8773L21.2892 47.8326C21.2913 47.7516 21.2924 47.6642 21.2924 47.5704C21.2945 47.4745 21.2956 47.3914 21.2956 47.3211V47.1708C21.2956 47.0835 21.2945 47.011 21.2924 46.9535C21.2924 46.8938 21.2903 46.832 21.286 46.7681L21.0303 46.7393V46.6274L21.5226 46.4324L21.5705 46.4644L21.5609 46.8991V47.3211C21.5609 47.3914 21.5609 47.4745 21.5609 47.5704C21.5631 47.6642 21.5652 47.7516 21.5673 47.8326L21.7911 47.8773V47.9924H21.0494ZM21.4267 46.0807C21.367 46.0807 21.3158 46.0616 21.2732 46.0232C21.2327 45.9848 21.2125 45.9358 21.2125 45.8762C21.2125 45.8144 21.2327 45.7653 21.2732 45.7291C21.3158 45.6907 21.367 45.6716 21.4267 45.6716C21.4863 45.6716 21.5364 45.6907 21.5769 45.7291C21.6195 45.7653 21.6408 45.8144 21.6408 45.8762C21.6408 45.9358 21.6195 45.9848 21.5769 46.0232C21.5364 46.0616 21.4863 46.0807 21.4267 46.0807Z" fill="#FF9548"/>
<path d="M22.8072 47.3531C22.9095 47.3531 22.9894 47.3147 23.0469 47.238C23.1045 47.1613 23.1333 47.0643 23.1333 46.9471C23.1333 46.8341 23.1056 46.7425 23.0501 46.6721C22.9969 46.5997 22.9201 46.5635 22.82 46.5635C22.7198 46.5635 22.641 46.6008 22.5834 46.6753C22.5259 46.7478 22.4971 46.8426 22.4971 46.9599C22.4971 47.0771 22.5237 47.1719 22.577 47.2444C22.6324 47.3168 22.7092 47.3531 22.8072 47.3531ZM22.8136 47.4809C22.7305 47.4809 22.6516 47.4692 22.577 47.4458C22.5237 47.514 22.4971 47.5822 22.4971 47.6504C22.4971 47.693 22.5088 47.7271 22.5323 47.7527C22.5578 47.7782 22.6079 47.791 22.6825 47.791H23.1013C23.2782 47.791 23.4082 47.8272 23.4913 47.8997C23.5744 47.9722 23.616 48.0734 23.616 48.2034C23.616 48.295 23.5861 48.3835 23.5265 48.4687C23.4689 48.554 23.3815 48.6232 23.2643 48.6765C23.1471 48.7298 23.0011 48.7564 22.8264 48.7564C22.5941 48.7564 22.4257 48.7202 22.3213 48.6477C22.2169 48.5753 22.1646 48.4826 22.1646 48.3696C22.1646 48.3014 22.187 48.2375 22.2318 48.1778C22.2787 48.1203 22.3607 48.0627 22.4779 48.0052C22.3373 47.9668 22.2669 47.8859 22.2669 47.7622C22.2669 47.7111 22.2829 47.6578 22.3149 47.6024C22.349 47.547 22.4055 47.482 22.4843 47.4074C22.4076 47.3648 22.3469 47.3062 22.3021 47.2316C22.2595 47.157 22.2382 47.0654 22.2382 46.9567C22.2382 46.7883 22.2925 46.6594 22.4012 46.5699C22.512 46.4782 22.6505 46.4324 22.8168 46.4324C22.9851 46.4324 23.1205 46.4739 23.2228 46.5571L23.584 46.4324L23.632 46.4644V46.6658H23.3187C23.3677 46.7446 23.3922 46.8416 23.3922 46.9567C23.3922 47.125 23.3368 47.255 23.226 47.3467C23.1173 47.4362 22.9798 47.4809 22.8136 47.4809ZM22.4268 48.3185C22.4268 48.4229 22.4641 48.4975 22.5387 48.5423C22.6133 48.587 22.7134 48.6094 22.8392 48.6094C23.0139 48.6094 23.1471 48.5774 23.2388 48.5135C23.3304 48.4517 23.3762 48.376 23.3762 48.2865C23.3762 48.2162 23.3517 48.1565 23.3027 48.1075C23.2537 48.0606 23.1716 48.0372 23.0565 48.0372H22.6825C22.6612 48.0372 22.6388 48.0361 22.6154 48.034C22.5941 48.034 22.5728 48.0329 22.5514 48.0308C22.5067 48.0777 22.4747 48.1235 22.4555 48.1682C22.4364 48.2151 22.4268 48.2652 22.4268 48.3185Z" fill="#FF9548"/>
<path d="M23.9759 47.9924V47.8773L24.2156 47.8326C24.2177 47.7516 24.2188 47.6642 24.2188 47.5704C24.2209 47.4745 24.222 47.3914 24.222 47.3211V47.1708C24.222 47.0835 24.2209 47.011 24.2188 46.9535C24.2188 46.8938 24.2167 46.832 24.2124 46.7681L23.9567 46.7393V46.6274L24.449 46.4324L24.4969 46.4644L24.4873 46.8991V47.3211C24.4873 47.3914 24.4873 47.4745 24.4873 47.5704C24.4895 47.6642 24.4916 47.7516 24.4937 47.8326L24.7175 47.8773V47.9924H23.9759ZM24.3531 46.0807C24.2934 46.0807 24.2423 46.0616 24.1996 46.0232C24.1591 45.9848 24.1389 45.9358 24.1389 45.8762C24.1389 45.8144 24.1591 45.7653 24.1996 45.7291C24.2423 45.6907 24.2934 45.6716 24.3531 45.6716C24.4127 45.6716 24.4628 45.6907 24.5033 45.7291C24.5459 45.7653 24.5673 45.8144 24.5673 45.8762C24.5673 45.9358 24.5459 45.9848 24.5033 46.0232C24.4628 46.0616 24.4127 46.0807 24.3531 46.0807Z" fill="#FF9548"/>
<path d="M25.6313 48.034C25.5205 48.034 25.432 48.0041 25.366 47.9445C25.2999 47.8848 25.2669 47.7931 25.2669 47.6695C25.2669 47.629 25.2669 47.5896 25.2669 47.5513C25.269 47.5108 25.2701 47.4596 25.2701 47.3978V46.6434H25.0047V46.5027L25.2892 46.4676L25.3724 46.0392H25.5642L25.545 46.4739H25.9766V46.6434H25.5418V47.6344C25.5418 47.7154 25.5578 47.775 25.5897 47.8134C25.6217 47.8496 25.6643 47.8677 25.7176 47.8677C25.7538 47.8677 25.7879 47.8603 25.8199 47.8454C25.854 47.8304 25.8913 47.8091 25.9318 47.7814L26.0085 47.8645C25.9211 47.9775 25.7954 48.034 25.6313 48.034Z" fill="#FF9548"/>
<path d="M27.5052 48.0244C27.4285 48.0244 27.3646 48.002 27.3134 47.9572C27.2623 47.9125 27.2303 47.8528 27.2175 47.7782C27.1301 47.8635 27.0534 47.9274 26.9874 47.97C26.9213 48.0127 26.8414 48.034 26.7476 48.034C26.6304 48.034 26.5291 48.0009 26.4439 47.9349C26.3608 47.8667 26.3192 47.7665 26.3192 47.6344C26.3192 47.5726 26.3331 47.515 26.3608 47.4617C26.3906 47.4085 26.4439 47.3563 26.5206 47.3051C26.5973 47.254 26.7071 47.2028 26.8499 47.1517C26.8989 47.1346 26.9554 47.1165 27.0193 47.0973C27.0833 47.0781 27.1472 47.0611 27.2111 47.0462V46.9663C27.2111 46.8107 27.1877 46.7073 27.1408 46.6562C27.0939 46.605 27.0172 46.5794 26.9106 46.5794C26.8872 46.5794 26.8605 46.5805 26.8307 46.5826C26.803 46.5848 26.7721 46.5901 26.738 46.5986L26.6773 46.8064C26.6474 46.9087 26.592 46.9599 26.511 46.9599C26.4215 46.9599 26.3714 46.9162 26.3608 46.8288C26.3906 46.7073 26.461 46.6114 26.5718 46.5411C26.6847 46.4686 26.8222 46.4324 26.9842 46.4324C27.1525 46.4324 27.2772 46.475 27.3582 46.5603C27.4392 46.6434 27.4797 46.7862 27.4797 46.9886V47.6695C27.4797 47.7377 27.4903 47.7868 27.5116 47.8166C27.5329 47.8443 27.5606 47.8581 27.5947 47.8581C27.6224 47.8581 27.6459 47.8518 27.6651 47.839C27.6842 47.8262 27.7024 47.8091 27.7194 47.7878L27.7833 47.8581C27.745 47.92 27.7024 47.9636 27.6555 47.9892C27.6107 48.0127 27.5606 48.0244 27.5052 48.0244ZM26.6037 47.5864C26.6037 47.6717 26.6282 47.7324 26.6773 47.7686C26.7263 47.8049 26.787 47.823 26.8595 47.823C26.8914 47.823 26.9213 47.8187 26.949 47.8102C26.9788 47.8017 27.014 47.7857 27.0545 47.7622C27.095 47.7367 27.1472 47.7004 27.2111 47.6536V47.1644C27.1557 47.1794 27.1014 47.1964 27.0481 47.2156C26.9948 47.2326 26.9511 47.2476 26.917 47.2604C26.8254 47.2966 26.7572 47.3339 26.7124 47.3722C26.6677 47.4106 26.6378 47.4479 26.6229 47.4841C26.6101 47.5204 26.6037 47.5545 26.6037 47.5864Z" fill="#FF9548"/>
<path d="M28.0416 47.9924V47.8773L28.2973 47.8326C28.2995 47.7452 28.3005 47.6599 28.3005 47.5768C28.3027 47.4916 28.3037 47.4063 28.3037 47.3211V45.9177L28.0416 45.8857V45.7739L28.5403 45.63L28.5851 45.6556L28.5723 46.1095V47.3211C28.5723 47.4063 28.5723 47.4916 28.5723 47.5768C28.5744 47.6621 28.5765 47.7473 28.5787 47.8326L28.8344 47.8773V47.9924H28.0416Z" fill="#FF9548"/>
<path d="M30.8396 46.5794C30.7799 46.5794 30.7192 46.5965 30.6574 46.6306C30.5977 46.6647 30.5455 46.719 30.5007 46.7936C30.4581 46.8682 30.4304 46.9673 30.4176 47.0909H30.9994C31.0761 47.0909 31.1262 47.0749 31.1497 47.043C31.1752 47.011 31.188 46.9716 31.188 46.9247C31.188 46.8629 31.172 46.8064 31.1401 46.7553C31.1102 46.702 31.0687 46.6594 31.0154 46.6274C30.9642 46.5954 30.9056 46.5794 30.8396 46.5794ZM30.8364 48.034C30.6211 48.034 30.4485 47.9647 30.3185 47.8262C30.1885 47.6855 30.1235 47.4927 30.1235 47.2476C30.1235 47.0835 30.1565 46.9407 30.2226 46.8192C30.2908 46.6977 30.3803 46.6029 30.4911 46.5347C30.6041 46.4665 30.7266 46.4324 30.8588 46.4324C30.9696 46.4324 31.0697 46.4569 31.1592 46.5059C31.2488 46.5549 31.3202 46.6253 31.3734 46.7169C31.4267 46.8064 31.4534 46.9162 31.4534 47.0462C31.4534 47.0824 31.4512 47.1165 31.447 47.1485C31.4427 47.1783 31.4374 47.2039 31.431 47.2252H30.4112C30.4155 47.4213 30.4645 47.5704 30.5583 47.6727C30.652 47.775 30.7756 47.8262 30.9291 47.8262C31.0314 47.8262 31.1166 47.8059 31.1848 47.7654C31.253 47.7228 31.3159 47.6685 31.3734 47.6024L31.4502 47.6631C31.3905 47.7761 31.3095 47.8667 31.2072 47.9349C31.1049 48.0009 30.9813 48.034 30.8364 48.034Z" fill="#FF9548"/>
<path d="M32.4084 48.034C32.3189 48.034 32.2369 48.0233 32.1623 48.002C32.0877 47.9828 32.011 47.953 31.9321 47.9125L31.9193 47.5608H32.0952L32.1559 47.839C32.2305 47.8731 32.3168 47.8901 32.4148 47.8901C32.5363 47.8901 32.6258 47.8677 32.6834 47.823C32.743 47.7782 32.7729 47.7196 32.7729 47.6472C32.7729 47.579 32.7484 47.5246 32.6993 47.4841C32.6503 47.4415 32.5757 47.4031 32.4756 47.369L32.3285 47.3147C32.2113 47.2721 32.1175 47.2167 32.0472 47.1485C31.9769 47.0803 31.9417 46.9918 31.9417 46.8831C31.9417 46.8043 31.963 46.7308 32.0056 46.6626C32.0483 46.5944 32.1111 46.539 32.1943 46.4963C32.2774 46.4537 32.3786 46.4324 32.4979 46.4324C32.5853 46.4324 32.6642 46.4441 32.7345 46.4676C32.807 46.4889 32.8773 46.5208 32.9455 46.5635L32.9327 46.8895H32.7665L32.7153 46.6338C32.6429 46.5976 32.5693 46.5794 32.4947 46.5794C32.3967 46.5794 32.3221 46.5997 32.271 46.6402C32.222 46.6785 32.1974 46.7308 32.1974 46.7968C32.1974 46.8672 32.2188 46.9204 32.2614 46.9567C32.3061 46.9929 32.3829 47.0313 32.4915 47.0717L32.5906 47.1069C32.7505 47.1666 32.8634 47.2348 32.9295 47.3115C32.9977 47.3882 33.0318 47.4767 33.0318 47.5768C33.0318 47.6578 33.0084 47.7335 32.9615 47.8038C32.9146 47.872 32.8453 47.9274 32.7537 47.97C32.662 48.0127 32.547 48.034 32.4084 48.034Z" fill="#FF9548"/>
<path d="M33.3957 48.7564V48.6445L33.6514 48.5998C33.6536 48.5124 33.6546 48.425 33.6546 48.3377C33.6568 48.2524 33.6578 48.1672 33.6578 48.0819V47.1676C33.6578 47.0803 33.6568 47.0078 33.6546 46.9503C33.6546 46.8927 33.6525 46.832 33.6482 46.7681L33.3957 46.7393V46.6274L33.8432 46.4324L33.8912 46.4644L33.9104 46.6721C34.0617 46.5123 34.2226 46.4324 34.3931 46.4324C34.5082 46.4324 34.6115 46.4644 34.7032 46.5283C34.7948 46.5922 34.8673 46.6839 34.9205 46.8032C34.9759 46.9204 35.0037 47.0622 35.0037 47.2284C35.0037 47.3925 34.9749 47.5353 34.9173 47.6568C34.8598 47.7761 34.7809 47.8688 34.6808 47.9349C34.5827 48.0009 34.4709 48.034 34.3451 48.034C34.2727 48.034 34.2002 48.0191 34.1277 47.9892C34.0574 47.9594 33.9881 47.905 33.92 47.8262V48.0787C33.92 48.164 33.92 48.2492 33.92 48.3345C33.9221 48.4218 33.9242 48.5092 33.9263 48.5966L34.2173 48.6445V48.7564H33.3957ZM34.3163 46.6146C34.2673 46.6146 34.2109 46.6274 34.1469 46.653C34.083 46.6764 34.0105 46.7222 33.9295 46.7904V47.6887C33.9892 47.7463 34.0478 47.7878 34.1054 47.8134C34.1629 47.839 34.2215 47.8518 34.2812 47.8518C34.4005 47.8518 34.5028 47.8038 34.5881 47.7079C34.6733 47.612 34.7159 47.4607 34.7159 47.254C34.7159 47.0494 34.6786 46.8917 34.6041 46.7808C34.5295 46.67 34.4336 46.6146 34.3163 46.6146Z" fill="#FF9548"/>
<path d="M35.4416 47.9924V47.8773L35.6718 47.8358C35.6739 47.7548 35.675 47.6674 35.675 47.5736C35.6771 47.4777 35.6782 47.3936 35.6782 47.3211V47.1676C35.6782 47.0803 35.6771 47.0078 35.675 46.9503C35.675 46.8927 35.6729 46.832 35.6686 46.7681L35.4161 46.7393V46.6274L35.8636 46.4324L35.9116 46.4644L35.9467 46.8416C36 46.7137 36.0682 46.6135 36.1513 46.5411C36.2366 46.4686 36.3218 46.4324 36.4071 46.4324C36.4561 46.4324 36.5019 46.443 36.5445 46.4644C36.5871 46.4857 36.618 46.5144 36.6372 46.5507C36.6372 46.7062 36.5744 46.784 36.4486 46.784C36.4124 46.784 36.3783 46.7776 36.3463 46.7649C36.3143 46.7499 36.2834 46.7297 36.2536 46.7041L36.2152 46.669C36.1513 46.7158 36.098 46.7734 36.0554 46.8416C36.0128 46.9098 35.9776 46.9897 35.9499 47.0813V47.3211C35.9499 47.3914 35.9499 47.4735 35.9499 47.5672C35.9521 47.661 35.9542 47.7484 35.9563 47.8294L36.2184 47.8773V47.9924H35.4416Z" fill="#FF9548"/>
<path d="M37.6477 46.5794C37.588 46.5794 37.5273 46.5965 37.4655 46.6306C37.4058 46.6647 37.3536 46.719 37.3088 46.7936C37.2662 46.8682 37.2385 46.9673 37.2257 47.0909H37.8075C37.8842 47.0909 37.9343 47.0749 37.9578 47.043C37.9833 47.011 37.9961 46.9716 37.9961 46.9247C37.9961 46.8629 37.9801 46.8064 37.9482 46.7553C37.9183 46.702 37.8768 46.6594 37.8235 46.6274C37.7723 46.5954 37.7137 46.5794 37.6477 46.5794ZM37.6445 48.034C37.4292 48.034 37.2566 47.9647 37.1266 47.8262C36.9966 47.6855 36.9316 47.4927 36.9316 47.2476C36.9316 47.0835 36.9646 46.9407 37.0307 46.8192C37.0989 46.6977 37.1884 46.6029 37.2992 46.5347C37.4122 46.4665 37.5347 46.4324 37.6669 46.4324C37.7777 46.4324 37.8778 46.4569 37.9673 46.5059C38.0569 46.5549 38.1283 46.6253 38.1815 46.7169C38.2348 46.8064 38.2615 46.9162 38.2615 47.0462C38.2615 47.0824 38.2593 47.1165 38.2551 47.1485C38.2508 47.1783 38.2455 47.2039 38.2391 47.2252H37.2193C37.2236 47.4213 37.2726 47.5704 37.3664 47.6727C37.4601 47.775 37.5837 47.8262 37.7372 47.8262C37.8395 47.8262 37.9247 47.8059 37.9929 47.7654C38.0611 47.7228 38.124 47.6685 38.1815 47.6024L38.2583 47.6631C38.1986 47.7761 38.1176 47.8667 38.0153 47.9349C37.913 48.0009 37.7894 48.034 37.6445 48.034Z" fill="#FF9548"/>
<path d="M39.2165 48.034C39.127 48.034 39.045 48.0233 38.9704 48.002C38.8958 47.9828 38.8191 47.953 38.7402 47.9125L38.7274 47.5608H38.9033L38.964 47.839C39.0386 47.8731 39.1249 47.8901 39.2229 47.8901C39.3444 47.8901 39.4339 47.8677 39.4915 47.823C39.5511 47.7782 39.581 47.7196 39.581 47.6472C39.581 47.579 39.5565 47.5246 39.5074 47.4841C39.4584 47.4415 39.3838 47.4031 39.2837 47.369L39.1366 47.3147C39.0194 47.2721 38.9256 47.2167 38.8553 47.1485C38.785 47.0803 38.7498 46.9918 38.7498 46.8831C38.7498 46.8043 38.7711 46.7308 38.8137 46.6626C38.8564 46.5944 38.9192 46.539 39.0024 46.4963C39.0855 46.4537 39.1867 46.4324 39.306 46.4324C39.3934 46.4324 39.4723 46.4441 39.5426 46.4676C39.6151 46.4889 39.6854 46.5208 39.7536 46.5635L39.7408 46.8895H39.5746L39.5234 46.6338C39.451 46.5976 39.3774 46.5794 39.3028 46.5794C39.2048 46.5794 39.1302 46.5997 39.0791 46.6402C39.0301 46.6785 39.0055 46.7308 39.0055 46.7968C39.0055 46.8672 39.0269 46.9204 39.0695 46.9567C39.1142 46.9929 39.191 47.0313 39.2996 47.0717L39.3987 47.1069C39.5586 47.1666 39.6715 47.2348 39.7376 47.3115C39.8058 47.3882 39.8399 47.4767 39.8399 47.5768C39.8399 47.6578 39.8165 47.7335 39.7696 47.8038C39.7227 47.872 39.6534 47.9274 39.5618 47.97C39.4701 48.0127 39.3551 48.034 39.2165 48.034Z" fill="#FF9548"/>
<path d="M40.7625 48.034C40.673 48.034 40.5909 48.0233 40.5163 48.002C40.4417 47.9828 40.365 47.953 40.2861 47.9125L40.2734 47.5608H40.4492L40.5099 47.839C40.5845 47.8731 40.6708 47.8901 40.7689 47.8901C40.8903 47.8901 40.9798 47.8677 41.0374 47.823C41.0971 47.7782 41.1269 47.7196 41.1269 47.6472C41.1269 47.579 41.1024 47.5246 41.0534 47.4841C41.0044 47.4415 40.9298 47.4031 40.8296 47.369L40.6825 47.3147C40.5653 47.2721 40.4716 47.2167 40.4012 47.1485C40.3309 47.0803 40.2957 46.9918 40.2957 46.8831C40.2957 46.8043 40.3171 46.7308 40.3597 46.6626C40.4023 46.5944 40.4652 46.539 40.5483 46.4963C40.6314 46.4537 40.7326 46.4324 40.852 46.4324C40.9394 46.4324 41.0182 46.4441 41.0885 46.4676C41.161 46.4889 41.2313 46.5208 41.2995 46.5635L41.2867 46.8895H41.1205L41.0694 46.6338C40.9969 46.5976 40.9234 46.5794 40.8488 46.5794C40.7507 46.5794 40.6762 46.5997 40.625 46.6402C40.576 46.6785 40.5515 46.7308 40.5515 46.7968C40.5515 46.8672 40.5728 46.9204 40.6154 46.9567C40.6602 46.9929 40.7369 47.0313 40.8456 47.0717L40.9447 47.1069C41.1045 47.1666 41.2175 47.2348 41.2835 47.3115C41.3517 47.3882 41.3858 47.4767 41.3858 47.5768C41.3858 47.6578 41.3624 47.7335 41.3155 47.8038C41.2686 47.872 41.1994 47.9274 41.1077 47.97C41.0161 48.0127 40.901 48.034 40.7625 48.034Z" fill="#FF9548"/>
<path d="M42.545 48.034C42.4214 48.034 42.3031 48.0052 42.1901 47.9477C42.0793 47.888 41.9887 47.7995 41.9184 47.6823C41.8481 47.563 41.8129 47.4159 41.8129 47.2412C41.8129 47.0643 41.8481 46.9162 41.9184 46.7968C41.9887 46.6753 42.0793 46.5848 42.1901 46.5251C42.3031 46.4633 42.4214 46.4324 42.545 46.4324C42.6686 46.4324 42.7858 46.4633 42.8966 46.5251C43.0096 46.5848 43.1012 46.6753 43.1715 46.7968C43.244 46.9162 43.2802 47.0643 43.2802 47.2412C43.2802 47.4159 43.244 47.563 43.1715 47.6823C43.1012 47.7995 43.0096 47.888 42.8966 47.9477C42.7858 48.0052 42.6686 48.034 42.545 48.034ZM42.545 47.8901C42.6835 47.8901 42.79 47.8358 42.8646 47.7271C42.9392 47.6163 42.9765 47.4543 42.9765 47.2412C42.9765 47.0259 42.9392 46.8618 42.8646 46.7489C42.79 46.6359 42.6835 46.5794 42.545 46.5794C42.4064 46.5794 42.2999 46.6359 42.2253 46.7489C42.1528 46.8618 42.1166 47.0259 42.1166 47.2412C42.1166 47.4543 42.1528 47.6163 42.2253 47.7271C42.2999 47.8358 42.4064 47.8901 42.545 47.8901Z" fill="#FF9548"/>
<mask id="path-4-outside-1" maskUnits="userSpaceOnUse" x="9.90997" y="31.0086" width="42" height="14" fill="black">
<rect fill="white" x="9.90997" y="31.0086" width="42" height="14"/>
<path d="M15.5173 41.7376C15.8662 41.7034 16.1427 41.6778 16.3469 41.6608C16.5766 41.6437 16.8574 41.6266 17.1892 41.6096V41.3279C16.8829 41.3279 16.6617 41.2554 16.5256 41.1103C16.3894 40.9738 16.3214 40.7647 16.3214 40.483V32.1366L14.4452 32.7767L14.5091 32.9687C14.909 32.9687 15.1812 33.0071 15.3259 33.0839C15.4705 33.1693 15.5428 33.3229 15.5428 33.5448V36.041C15.3216 35.8106 15.0919 35.6399 14.8537 35.529C14.5303 35.3839 14.1304 35.3113 13.654 35.3113C12.7521 35.3113 12.0544 35.6527 11.5609 36.3354C11.1269 36.9328 10.91 37.6924 10.91 38.6141C10.91 39.5016 11.1354 40.2526 11.5864 40.8671C12.0884 41.5498 12.7776 41.8912 13.654 41.8912C14.1049 41.8912 14.5006 41.8144 14.8409 41.6608C15.1132 41.5327 15.3386 41.3706 15.5173 41.1743V41.7376ZM15.5428 36.5275V40.7007L15.4663 40.7647C15.2961 40.9695 15.1302 41.1146 14.9685 41.1999C14.6877 41.3621 14.3389 41.4431 13.922 41.4431C13.2073 41.4431 12.6585 41.1487 12.2756 40.5599C11.9438 40.0563 11.7778 39.4077 11.7778 38.6141C11.7778 37.8204 11.9438 37.1632 12.2756 36.6427C12.6585 36.0538 13.2073 35.7594 13.922 35.7594C14.3219 35.7594 14.6495 35.8234 14.9047 35.9514C15.1344 36.0709 15.3471 36.2629 15.5428 36.5275Z"/>
<path d="M20.2038 32.0086C19.9741 32.0086 19.7996 32.0769 19.6805 32.2134C19.5699 32.3329 19.5146 32.4865 19.5146 32.6743C19.5146 32.845 19.5699 32.99 19.6805 33.1095C19.7996 33.2461 19.9741 33.3143 20.2038 33.3143C20.4165 33.3143 20.5867 33.2461 20.7143 33.1095C20.8334 32.99 20.893 32.845 20.893 32.6743C20.893 32.4865 20.8334 32.3329 20.7143 32.2134C20.5867 32.0769 20.4165 32.0086 20.2038 32.0086ZM18.9275 41.6736V41.3407C19.2423 41.3407 19.4636 41.2981 19.5912 41.2127C19.7273 41.1274 19.7954 40.9567 19.7954 40.7007V36.6939C19.7954 36.4976 19.7401 36.3525 19.6295 36.2586C19.4933 36.1562 19.2551 36.105 18.9148 36.105L18.8765 35.913L20.5739 35.3113V40.7007C20.5739 40.9567 20.6335 41.1274 20.7526 41.2127C20.8717 41.2981 21.1057 41.3407 21.4545 41.3407V41.6736H18.9275Z"/>
<path d="M26.3069 35.3113C25.5837 35.3113 25.0009 35.4905 24.5584 35.849C24.082 36.2245 23.8437 36.7365 23.8437 37.3851C23.8437 37.7948 23.9501 38.166 24.1628 38.4988C24.367 38.8146 24.6478 39.0578 25.0051 39.2285C24.6818 39.3395 24.4393 39.4419 24.2777 39.5357C23.9969 39.6979 23.8565 39.8686 23.8565 40.0478C23.8565 40.227 23.9501 40.3764 24.1373 40.4958C24.35 40.6324 24.6946 40.7476 25.171 40.8415C24.7031 40.9439 24.2904 41.1018 23.9331 41.3151C23.4991 41.5797 23.2822 41.857 23.2822 42.1472C23.2822 42.591 23.5161 42.9281 23.9841 43.1585C24.4861 43.3975 25.2604 43.5169 26.3069 43.5169C27.2769 43.5169 28.0256 43.4103 28.5532 43.1969C29.1658 42.9494 29.4721 42.5611 29.4721 42.032C29.4721 41.6224 29.3104 41.2981 28.9871 41.0591C28.7063 40.8543 28.3107 40.7092 27.8002 40.6239L26.626 40.4318L25.171 40.2014C24.9583 40.1587 24.8137 40.0905 24.7371 39.9966C24.6776 39.9369 24.652 39.8558 24.6605 39.7534C24.6605 39.6766 24.7244 39.5998 24.852 39.5229C24.9711 39.4547 25.1285 39.3992 25.3242 39.3565C25.5029 39.4077 25.6688 39.4376 25.8219 39.4461C25.924 39.4632 26.0857 39.4717 26.3069 39.4717C26.9961 39.4717 27.5662 39.2883 28.0171 38.9213C28.4936 38.5373 28.7318 38.0295 28.7318 37.3979C28.7318 37.159 28.6893 36.9243 28.6042 36.6939C28.5191 36.472 28.4085 36.2672 28.2724 36.0794C28.4085 35.9685 28.5319 35.9173 28.6425 35.9258C28.7106 35.9343 28.8084 35.977 28.9361 36.0538C29.0041 36.0879 29.0552 36.1135 29.0892 36.1306C29.1573 36.1647 29.2253 36.1818 29.2934 36.1818C29.421 36.1818 29.5274 36.1306 29.6125 36.0282C29.7061 35.9343 29.7529 35.8191 29.7529 35.6826C29.7529 35.5546 29.6848 35.4479 29.5487 35.3625C29.4295 35.2857 29.2977 35.2473 29.153 35.2473C28.9743 35.2473 28.7872 35.2985 28.5915 35.4009C28.3958 35.5034 28.2128 35.6484 28.0427 35.8362C27.8725 35.6826 27.6598 35.5631 27.4045 35.4777C27.0812 35.3668 26.7153 35.3113 26.3069 35.3113ZM26.5239 43.1969C25.7241 43.1969 25.103 43.103 24.6605 42.9153C24.2521 42.7361 24.0479 42.5014 24.0479 42.2112C24.0479 41.9637 24.1756 41.7461 24.4308 41.5583C24.7201 41.3365 25.171 41.1615 25.7837 41.0335C26.0389 41.0591 26.2984 41.0932 26.5622 41.1359C26.7153 41.153 26.9195 41.1828 27.1748 41.2255L27.4811 41.2767C27.898 41.3365 28.2171 41.4602 28.4383 41.648C28.6425 41.8186 28.7446 42.0235 28.7446 42.2624C28.7446 42.5184 28.5319 42.7361 28.1065 42.9153C27.6811 43.103 27.1535 43.1969 26.5239 43.1969ZM26.3069 35.6314C26.8259 35.6314 27.2301 35.8148 27.5194 36.1818C27.7746 36.4976 27.9023 36.8987 27.9023 37.3851C27.9023 37.8631 27.7746 38.2642 27.5194 38.5885C27.2301 38.964 26.8259 39.1517 26.3069 39.1517C25.7709 39.1517 25.3582 38.964 25.0689 38.5885C24.8137 38.2727 24.6861 37.8716 24.6861 37.3851C24.6861 36.8987 24.8137 36.4976 25.0689 36.1818C25.3582 35.8148 25.7709 35.6314 26.3069 35.6314Z"/>
<path d="M32.9078 32.0086C32.6781 32.0086 32.5037 32.0769 32.3845 32.2134C32.2739 32.3329 32.2186 32.4865 32.2186 32.6743C32.2186 32.845 32.2739 32.99 32.3845 33.1095C32.5037 33.2461 32.6781 33.3143 32.9078 33.3143C33.1205 33.3143 33.2907 33.2461 33.4183 33.1095C33.5374 32.99 33.597 32.845 33.597 32.6743C33.597 32.4865 33.5374 32.3329 33.4183 32.2134C33.2907 32.0769 33.1205 32.0086 32.9078 32.0086ZM31.6315 41.6736V41.3407C31.9464 41.3407 32.1676 41.2981 32.2952 41.2127C32.4313 41.1274 32.4994 40.9567 32.4994 40.7007V36.6939C32.4994 36.4976 32.4441 36.3525 32.3335 36.2586C32.1974 36.1562 31.9591 36.105 31.6188 36.105L31.5805 35.913L33.2779 35.3113V40.7007C33.2779 40.9567 33.3375 41.1274 33.4566 41.2127C33.5757 41.2981 33.8097 41.3407 34.1586 41.3407V41.6736H31.6315Z"/>
<path d="M41.9081 40.163C41.5763 40.5812 41.2147 40.8927 40.8233 41.0975C40.4234 41.3109 39.9682 41.4175 39.4576 41.4175C38.76 41.4175 38.2026 41.1914 37.7857 40.7391C37.3093 40.2185 37.071 39.4291 37.071 38.3708H42.023C42.023 37.4065 41.7677 36.6512 41.2572 36.105C40.7552 35.5759 40.0745 35.3113 39.2152 35.3113C38.3218 35.3113 37.5943 35.6271 37.0327 36.2586C36.4967 36.8731 36.2287 37.6454 36.2287 38.5757C36.2287 39.5656 36.5052 40.3678 37.0583 40.9823C37.6198 41.5882 38.3601 41.8912 39.279 41.8912C39.9596 41.8912 40.5425 41.7376 41.0275 41.4303C41.4189 41.1828 41.7762 40.8159 42.0995 40.3294L41.9081 40.163ZM41.1679 37.9996H37.071C37.1051 37.3254 37.3305 36.7579 37.7474 36.297C38.1559 35.8533 38.6408 35.6314 39.2024 35.6314C39.798 35.6314 40.2617 35.8191 40.5935 36.1946C40.9339 36.5872 41.1253 37.1889 41.1679 37.9996Z"/>
<path d="M46.9264 35.4009H44.2845V35.7338C44.5398 35.7338 44.7567 35.7764 44.9354 35.8618C45.0971 35.9471 45.2587 36.0879 45.4204 36.2842L47.271 38.5501L45.6246 40.5342C45.3353 40.8756 45.0715 41.0975 44.8333 41.1999C44.6461 41.2938 44.3909 41.3407 44.0675 41.3407V41.6736H46.5308V41.3407C46.1223 41.3407 45.8799 41.2938 45.8033 41.1999C45.7182 41.106 45.7607 40.9311 45.9309 40.6751L47.4752 38.8317L49.1599 40.9055C49.296 41.042 49.296 41.153 49.1599 41.2383C49.0833 41.3066 48.8493 41.3407 48.4579 41.3407V41.6736H51.1892V41.3407C50.8999 41.3407 50.6744 41.3066 50.5127 41.2383C50.3426 41.1786 50.2064 41.0676 50.1043 40.9055L47.9474 38.2428L49.5683 36.2586C49.7044 36.0709 49.8788 35.9386 50.0916 35.8618C50.3128 35.7764 50.6021 35.7338 50.9594 35.7338V35.4009H48.56V35.7338C48.9174 35.7338 49.1429 35.7679 49.2365 35.8362C49.3215 35.9045 49.3045 36.0239 49.1854 36.1946L47.7305 37.9484L46.301 36.169C46.1564 35.9983 46.1309 35.8831 46.2245 35.8234C46.3095 35.7636 46.5435 35.7338 46.9264 35.7338V35.4009Z"/>
</mask>
<path d="M15.5173 41.7376C15.8662 41.7034 16.1427 41.6778 16.3469 41.6608C16.5766 41.6437 16.8574 41.6266 17.1892 41.6096V41.3279C16.8829 41.3279 16.6617 41.2554 16.5256 41.1103C16.3894 40.9738 16.3214 40.7647 16.3214 40.483V32.1366L14.4452 32.7767L14.5091 32.9687C14.909 32.9687 15.1812 33.0071 15.3259 33.0839C15.4705 33.1693 15.5428 33.3229 15.5428 33.5448V36.041C15.3216 35.8106 15.0919 35.6399 14.8537 35.529C14.5303 35.3839 14.1304 35.3113 13.654 35.3113C12.7521 35.3113 12.0544 35.6527 11.5609 36.3354C11.1269 36.9328 10.91 37.6924 10.91 38.6141C10.91 39.5016 11.1354 40.2526 11.5864 40.8671C12.0884 41.5498 12.7776 41.8912 13.654 41.8912C14.1049 41.8912 14.5006 41.8144 14.8409 41.6608C15.1132 41.5327 15.3386 41.3706 15.5173 41.1743V41.7376ZM15.5428 36.5275V40.7007L15.4663 40.7647C15.2961 40.9695 15.1302 41.1146 14.9685 41.1999C14.6877 41.3621 14.3389 41.4431 13.922 41.4431C13.2073 41.4431 12.6585 41.1487 12.2756 40.5599C11.9438 40.0563 11.7778 39.4077 11.7778 38.6141C11.7778 37.8204 11.9438 37.1632 12.2756 36.6427C12.6585 36.0538 13.2073 35.7594 13.922 35.7594C14.3219 35.7594 14.6495 35.8234 14.9047 35.9514C15.1344 36.0709 15.3471 36.2629 15.5428 36.5275Z" fill="#FF9548"/>
<path d="M20.2038 32.0086C19.9741 32.0086 19.7996 32.0769 19.6805 32.2134C19.5699 32.3329 19.5146 32.4865 19.5146 32.6743C19.5146 32.845 19.5699 32.99 19.6805 33.1095C19.7996 33.2461 19.9741 33.3143 20.2038 33.3143C20.4165 33.3143 20.5867 33.2461 20.7143 33.1095C20.8334 32.99 20.893 32.845 20.893 32.6743C20.893 32.4865 20.8334 32.3329 20.7143 32.2134C20.5867 32.0769 20.4165 32.0086 20.2038 32.0086ZM18.9275 41.6736V41.3407C19.2423 41.3407 19.4636 41.2981 19.5912 41.2127C19.7273 41.1274 19.7954 40.9567 19.7954 40.7007V36.6939C19.7954 36.4976 19.7401 36.3525 19.6295 36.2586C19.4933 36.1562 19.2551 36.105 18.9148 36.105L18.8765 35.913L20.5739 35.3113V40.7007C20.5739 40.9567 20.6335 41.1274 20.7526 41.2127C20.8717 41.2981 21.1057 41.3407 21.4545 41.3407V41.6736H18.9275Z" fill="#FF9548"/>
<path d="M26.3069 35.3113C25.5837 35.3113 25.0009 35.4905 24.5584 35.849C24.082 36.2245 23.8437 36.7365 23.8437 37.3851C23.8437 37.7948 23.9501 38.166 24.1628 38.4988C24.367 38.8146 24.6478 39.0578 25.0051 39.2285C24.6818 39.3395 24.4393 39.4419 24.2777 39.5357C23.9969 39.6979 23.8565 39.8686 23.8565 40.0478C23.8565 40.227 23.9501 40.3764 24.1373 40.4958C24.35 40.6324 24.6946 40.7476 25.171 40.8415C24.7031 40.9439 24.2904 41.1018 23.9331 41.3151C23.4991 41.5797 23.2822 41.857 23.2822 42.1472C23.2822 42.591 23.5161 42.9281 23.9841 43.1585C24.4861 43.3975 25.2604 43.5169 26.3069 43.5169C27.2769 43.5169 28.0256 43.4103 28.5532 43.1969C29.1658 42.9494 29.4721 42.5611 29.4721 42.032C29.4721 41.6224 29.3104 41.2981 28.9871 41.0591C28.7063 40.8543 28.3107 40.7092 27.8002 40.6239L26.626 40.4318L25.171 40.2014C24.9583 40.1587 24.8137 40.0905 24.7371 39.9966C24.6776 39.9369 24.652 39.8558 24.6605 39.7534C24.6605 39.6766 24.7244 39.5998 24.852 39.5229C24.9711 39.4547 25.1285 39.3992 25.3242 39.3565C25.5029 39.4077 25.6688 39.4376 25.8219 39.4461C25.924 39.4632 26.0857 39.4717 26.3069 39.4717C26.9961 39.4717 27.5662 39.2883 28.0171 38.9213C28.4936 38.5373 28.7318 38.0295 28.7318 37.3979C28.7318 37.159 28.6893 36.9243 28.6042 36.6939C28.5191 36.472 28.4085 36.2672 28.2724 36.0794C28.4085 35.9685 28.5319 35.9173 28.6425 35.9258C28.7106 35.9343 28.8084 35.977 28.9361 36.0538C29.0041 36.0879 29.0552 36.1135 29.0892 36.1306C29.1573 36.1647 29.2253 36.1818 29.2934 36.1818C29.421 36.1818 29.5274 36.1306 29.6125 36.0282C29.7061 35.9343 29.7529 35.8191 29.7529 35.6826C29.7529 35.5546 29.6848 35.4479 29.5487 35.3625C29.4295 35.2857 29.2977 35.2473 29.153 35.2473C28.9743 35.2473 28.7872 35.2985 28.5915 35.4009C28.3958 35.5034 28.2128 35.6484 28.0427 35.8362C27.8725 35.6826 27.6598 35.5631 27.4045 35.4777C27.0812 35.3668 26.7153 35.3113 26.3069 35.3113ZM26.5239 43.1969C25.7241 43.1969 25.103 43.103 24.6605 42.9153C24.2521 42.7361 24.0479 42.5014 24.0479 42.2112C24.0479 41.9637 24.1756 41.7461 24.4308 41.5583C24.7201 41.3365 25.171 41.1615 25.7837 41.0335C26.0389 41.0591 26.2984 41.0932 26.5622 41.1359C26.7153 41.153 26.9195 41.1828 27.1748 41.2255L27.4811 41.2767C27.898 41.3365 28.2171 41.4602 28.4383 41.648C28.6425 41.8186 28.7446 42.0235 28.7446 42.2624C28.7446 42.5184 28.5319 42.7361 28.1065 42.9153C27.6811 43.103 27.1535 43.1969 26.5239 43.1969ZM26.3069 35.6314C26.8259 35.6314 27.2301 35.8148 27.5194 36.1818C27.7746 36.4976 27.9023 36.8987 27.9023 37.3851C27.9023 37.8631 27.7746 38.2642 27.5194 38.5885C27.2301 38.964 26.8259 39.1517 26.3069 39.1517C25.7709 39.1517 25.3582 38.964 25.0689 38.5885C24.8137 38.2727 24.6861 37.8716 24.6861 37.3851C24.6861 36.8987 24.8137 36.4976 25.0689 36.1818C25.3582 35.8148 25.7709 35.6314 26.3069 35.6314Z" fill="#FF9548"/>
<path d="M32.9078 32.0086C32.6781 32.0086 32.5037 32.0769 32.3845 32.2134C32.2739 32.3329 32.2186 32.4865 32.2186 32.6743C32.2186 32.845 32.2739 32.99 32.3845 33.1095C32.5037 33.2461 32.6781 33.3143 32.9078 33.3143C33.1205 33.3143 33.2907 33.2461 33.4183 33.1095C33.5374 32.99 33.597 32.845 33.597 32.6743C33.597 32.4865 33.5374 32.3329 33.4183 32.2134C33.2907 32.0769 33.1205 32.0086 32.9078 32.0086ZM31.6315 41.6736V41.3407C31.9464 41.3407 32.1676 41.2981 32.2952 41.2127C32.4313 41.1274 32.4994 40.9567 32.4994 40.7007V36.6939C32.4994 36.4976 32.4441 36.3525 32.3335 36.2586C32.1974 36.1562 31.9591 36.105 31.6188 36.105L31.5805 35.913L33.2779 35.3113V40.7007C33.2779 40.9567 33.3375 41.1274 33.4566 41.2127C33.5757 41.2981 33.8097 41.3407 34.1586 41.3407V41.6736H31.6315Z" fill="#FF9548"/>
<path d="M41.9081 40.163C41.5763 40.5812 41.2147 40.8927 40.8233 41.0975C40.4234 41.3109 39.9682 41.4175 39.4576 41.4175C38.76 41.4175 38.2026 41.1914 37.7857 40.7391C37.3093 40.2185 37.071 39.4291 37.071 38.3708H42.023C42.023 37.4065 41.7677 36.6512 41.2572 36.105C40.7552 35.5759 40.0745 35.3113 39.2152 35.3113C38.3218 35.3113 37.5943 35.6271 37.0327 36.2586C36.4967 36.8731 36.2287 37.6454 36.2287 38.5757C36.2287 39.5656 36.5052 40.3678 37.0583 40.9823C37.6198 41.5882 38.3601 41.8912 39.279 41.8912C39.9596 41.8912 40.5425 41.7376 41.0275 41.4303C41.4189 41.1828 41.7762 40.8159 42.0995 40.3294L41.9081 40.163ZM41.1679 37.9996H37.071C37.1051 37.3254 37.3305 36.7579 37.7474 36.297C38.1559 35.8533 38.6408 35.6314 39.2024 35.6314C39.798 35.6314 40.2617 35.8191 40.5935 36.1946C40.9339 36.5872 41.1253 37.1889 41.1679 37.9996Z" fill="#FF9548"/>
<path d="M46.9264 35.4009H44.2845V35.7338C44.5398 35.7338 44.7567 35.7764 44.9354 35.8618C45.0971 35.9471 45.2587 36.0879 45.4204 36.2842L47.271 38.5501L45.6246 40.5342C45.3353 40.8756 45.0715 41.0975 44.8333 41.1999C44.6461 41.2938 44.3909 41.3407 44.0675 41.3407V41.6736H46.5308V41.3407C46.1223 41.3407 45.8799 41.2938 45.8033 41.1999C45.7182 41.106 45.7607 40.9311 45.9309 40.6751L47.4752 38.8317L49.1599 40.9055C49.296 41.042 49.296 41.153 49.1599 41.2383C49.0833 41.3066 48.8493 41.3407 48.4579 41.3407V41.6736H51.1892V41.3407C50.8999 41.3407 50.6744 41.3066 50.5127 41.2383C50.3426 41.1786 50.2064 41.0676 50.1043 40.9055L47.9474 38.2428L49.5683 36.2586C49.7044 36.0709 49.8788 35.9386 50.0916 35.8618C50.3128 35.7764 50.6021 35.7338 50.9594 35.7338V35.4009H48.56V35.7338C48.9174 35.7338 49.1429 35.7679 49.2365 35.8362C49.3215 35.9045 49.3045 36.0239 49.1854 36.1946L47.7305 37.9484L46.301 36.169C46.1564 35.9983 46.1309 35.8831 46.2245 35.8234C46.3095 35.7636 46.5435 35.7338 46.9264 35.7338V35.4009Z" fill="#FF9548"/>
<path d="M15.5173 41.7376C15.8662 41.7034 16.1427 41.6778 16.3469 41.6608C16.5766 41.6437 16.8574 41.6266 17.1892 41.6096V41.3279C16.8829 41.3279 16.6617 41.2554 16.5256 41.1103C16.3894 40.9738 16.3214 40.7647 16.3214 40.483V32.1366L14.4452 32.7767L14.5091 32.9687C14.909 32.9687 15.1812 33.0071 15.3259 33.0839C15.4705 33.1693 15.5428 33.3229 15.5428 33.5448V36.041C15.3216 35.8106 15.0919 35.6399 14.8537 35.529C14.5303 35.3839 14.1304 35.3113 13.654 35.3113C12.7521 35.3113 12.0544 35.6527 11.5609 36.3354C11.1269 36.9328 10.91 37.6924 10.91 38.6141C10.91 39.5016 11.1354 40.2526 11.5864 40.8671C12.0884 41.5498 12.7776 41.8912 13.654 41.8912C14.1049 41.8912 14.5006 41.8144 14.8409 41.6608C15.1132 41.5327 15.3386 41.3706 15.5173 41.1743V41.7376ZM15.5428 36.5275V40.7007L15.4663 40.7647C15.2961 40.9695 15.1302 41.1146 14.9685 41.1999C14.6877 41.3621 14.3389 41.4431 13.922 41.4431C13.2073 41.4431 12.6585 41.1487 12.2756 40.5599C11.9438 40.0563 11.7778 39.4077 11.7778 38.6141C11.7778 37.8204 11.9438 37.1632 12.2756 36.6427C12.6585 36.0538 13.2073 35.7594 13.922 35.7594C14.3219 35.7594 14.6495 35.8234 14.9047 35.9514C15.1344 36.0709 15.3471 36.2629 15.5428 36.5275Z" stroke="#FF9548" mask="url(#path-4-outside-1)"/>
<path d="M20.2038 32.0086C19.9741 32.0086 19.7996 32.0769 19.6805 32.2134C19.5699 32.3329 19.5146 32.4865 19.5146 32.6743C19.5146 32.845 19.5699 32.99 19.6805 33.1095C19.7996 33.2461 19.9741 33.3143 20.2038 33.3143C20.4165 33.3143 20.5867 33.2461 20.7143 33.1095C20.8334 32.99 20.893 32.845 20.893 32.6743C20.893 32.4865 20.8334 32.3329 20.7143 32.2134C20.5867 32.0769 20.4165 32.0086 20.2038 32.0086ZM18.9275 41.6736V41.3407C19.2423 41.3407 19.4636 41.2981 19.5912 41.2127C19.7273 41.1274 19.7954 40.9567 19.7954 40.7007V36.6939C19.7954 36.4976 19.7401 36.3525 19.6295 36.2586C19.4933 36.1562 19.2551 36.105 18.9148 36.105L18.8765 35.913L20.5739 35.3113V40.7007C20.5739 40.9567 20.6335 41.1274 20.7526 41.2127C20.8717 41.2981 21.1057 41.3407 21.4545 41.3407V41.6736H18.9275Z" stroke="#FF9548" mask="url(#path-4-outside-1)"/>
<path d="M26.3069 35.3113C25.5837 35.3113 25.0009 35.4905 24.5584 35.849C24.082 36.2245 23.8437 36.7365 23.8437 37.3851C23.8437 37.7948 23.9501 38.166 24.1628 38.4988C24.367 38.8146 24.6478 39.0578 25.0051 39.2285C24.6818 39.3395 24.4393 39.4419 24.2777 39.5357C23.9969 39.6979 23.8565 39.8686 23.8565 40.0478C23.8565 40.227 23.9501 40.3764 24.1373 40.4958C24.35 40.6324 24.6946 40.7476 25.171 40.8415C24.7031 40.9439 24.2904 41.1018 23.9331 41.3151C23.4991 41.5797 23.2822 41.857 23.2822 42.1472C23.2822 42.591 23.5161 42.9281 23.9841 43.1585C24.4861 43.3975 25.2604 43.5169 26.3069 43.5169C27.2769 43.5169 28.0256 43.4103 28.5532 43.1969C29.1658 42.9494 29.4721 42.5611 29.4721 42.032C29.4721 41.6224 29.3104 41.2981 28.9871 41.0591C28.7063 40.8543 28.3107 40.7092 27.8002 40.6239L26.626 40.4318L25.171 40.2014C24.9583 40.1587 24.8137 40.0905 24.7371 39.9966C24.6776 39.9369 24.652 39.8558 24.6605 39.7534C24.6605 39.6766 24.7244 39.5998 24.852 39.5229C24.9711 39.4547 25.1285 39.3992 25.3242 39.3565C25.5029 39.4077 25.6688 39.4376 25.8219 39.4461C25.924 39.4632 26.0857 39.4717 26.3069 39.4717C26.9961 39.4717 27.5662 39.2883 28.0171 38.9213C28.4936 38.5373 28.7318 38.0295 28.7318 37.3979C28.7318 37.159 28.6893 36.9243 28.6042 36.6939C28.5191 36.472 28.4085 36.2672 28.2724 36.0794C28.4085 35.9685 28.5319 35.9173 28.6425 35.9258C28.7106 35.9343 28.8084 35.977 28.9361 36.0538C29.0041 36.0879 29.0552 36.1135 29.0892 36.1306C29.1573 36.1647 29.2253 36.1818 29.2934 36.1818C29.421 36.1818 29.5274 36.1306 29.6125 36.0282C29.7061 35.9343 29.7529 35.8191 29.7529 35.6826C29.7529 35.5546 29.6848 35.4479 29.5487 35.3625C29.4295 35.2857 29.2977 35.2473 29.153 35.2473C28.9743 35.2473 28.7872 35.2985 28.5915 35.4009C28.3958 35.5034 28.2128 35.6484 28.0427 35.8362C27.8725 35.6826 27.6598 35.5631 27.4045 35.4777C27.0812 35.3668 26.7153 35.3113 26.3069 35.3113ZM26.5239 43.1969C25.7241 43.1969 25.103 43.103 24.6605 42.9153C24.2521 42.7361 24.0479 42.5014 24.0479 42.2112C24.0479 41.9637 24.1756 41.7461 24.4308 41.5583C24.7201 41.3365 25.171 41.1615 25.7837 41.0335C26.0389 41.0591 26.2984 41.0932 26.5622 41.1359C26.7153 41.153 26.9195 41.1828 27.1748 41.2255L27.4811 41.2767C27.898 41.3365 28.2171 41.4602 28.4383 41.648C28.6425 41.8186 28.7446 42.0235 28.7446 42.2624C28.7446 42.5184 28.5319 42.7361 28.1065 42.9153C27.6811 43.103 27.1535 43.1969 26.5239 43.1969ZM26.3069 35.6314C26.8259 35.6314 27.2301 35.8148 27.5194 36.1818C27.7746 36.4976 27.9023 36.8987 27.9023 37.3851C27.9023 37.8631 27.7746 38.2642 27.5194 38.5885C27.2301 38.964 26.8259 39.1517 26.3069 39.1517C25.7709 39.1517 25.3582 38.964 25.0689 38.5885C24.8137 38.2727 24.6861 37.8716 24.6861 37.3851C24.6861 36.8987 24.8137 36.4976 25.0689 36.1818C25.3582 35.8148 25.7709 35.6314 26.3069 35.6314Z" stroke="#FF9548" mask="url(#path-4-outside-1)"/>
<path d="M32.9078 32.0086C32.6781 32.0086 32.5037 32.0769 32.3845 32.2134C32.2739 32.3329 32.2186 32.4865 32.2186 32.6743C32.2186 32.845 32.2739 32.99 32.3845 33.1095C32.5037 33.2461 32.6781 33.3143 32.9078 33.3143C33.1205 33.3143 33.2907 33.2461 33.4183 33.1095C33.5374 32.99 33.597 32.845 33.597 32.6743C33.597 32.4865 33.5374 32.3329 33.4183 32.2134C33.2907 32.0769 33.1205 32.0086 32.9078 32.0086ZM31.6315 41.6736V41.3407C31.9464 41.3407 32.1676 41.2981 32.2952 41.2127C32.4313 41.1274 32.4994 40.9567 32.4994 40.7007V36.6939C32.4994 36.4976 32.4441 36.3525 32.3335 36.2586C32.1974 36.1562 31.9591 36.105 31.6188 36.105L31.5805 35.913L33.2779 35.3113V40.7007C33.2779 40.9567 33.3375 41.1274 33.4566 41.2127C33.5757 41.2981 33.8097 41.3407 34.1586 41.3407V41.6736H31.6315Z" stroke="#FF9548" mask="url(#path-4-outside-1)"/>
<path d="M41.9081 40.163C41.5763 40.5812 41.2147 40.8927 40.8233 41.0975C40.4234 41.3109 39.9682 41.4175 39.4576 41.4175C38.76 41.4175 38.2026 41.1914 37.7857 40.7391C37.3093 40.2185 37.071 39.4291 37.071 38.3708H42.023C42.023 37.4065 41.7677 36.6512 41.2572 36.105C40.7552 35.5759 40.0745 35.3113 39.2152 35.3113C38.3218 35.3113 37.5943 35.6271 37.0327 36.2586C36.4967 36.8731 36.2287 37.6454 36.2287 38.5757C36.2287 39.5656 36.5052 40.3678 37.0583 40.9823C37.6198 41.5882 38.3601 41.8912 39.279 41.8912C39.9596 41.8912 40.5425 41.7376 41.0275 41.4303C41.4189 41.1828 41.7762 40.8159 42.0995 40.3294L41.9081 40.163ZM41.1679 37.9996H37.071C37.1051 37.3254 37.3305 36.7579 37.7474 36.297C38.1559 35.8533 38.6408 35.6314 39.2024 35.6314C39.798 35.6314 40.2617 35.8191 40.5935 36.1946C40.9339 36.5872 41.1253 37.1889 41.1679 37.9996Z" stroke="#FF9548" mask="url(#path-4-outside-1)"/>
<path d="M46.9264 35.4009H44.2845V35.7338C44.5398 35.7338 44.7567 35.7764 44.9354 35.8618C45.0971 35.9471 45.2587 36.0879 45.4204 36.2842L47.271 38.5501L45.6246 40.5342C45.3353 40.8756 45.0715 41.0975 44.8333 41.1999C44.6461 41.2938 44.3909 41.3407 44.0675 41.3407V41.6736H46.5308V41.3407C46.1223 41.3407 45.8799 41.2938 45.8033 41.1999C45.7182 41.106 45.7607 40.9311 45.9309 40.6751L47.4752 38.8317L49.1599 40.9055C49.296 41.042 49.296 41.153 49.1599 41.2383C49.0833 41.3066 48.8493 41.3407 48.4579 41.3407V41.6736H51.1892V41.3407C50.8999 41.3407 50.6744 41.3066 50.5127 41.2383C50.3426 41.1786 50.2064 41.0676 50.1043 40.9055L47.9474 38.2428L49.5683 36.2586C49.7044 36.0709 49.8788 35.9386 50.0916 35.8618C50.3128 35.7764 50.6021 35.7338 50.9594 35.7338V35.4009H48.56V35.7338C48.9174 35.7338 49.1429 35.7679 49.2365 35.8362C49.3215 35.9045 49.3045 36.0239 49.1854 36.1946L47.7305 37.9484L46.301 36.169C46.1564 35.9983 46.1309 35.8831 46.2245 35.8234C46.3095 35.7636 46.5435 35.7338 46.9264 35.7338V35.4009Z" stroke="#FF9548" mask="url(#path-4-outside-1)"/>
</svg>
