<svg width="408" height="379" viewBox="0 0 408 379" fill="none" xmlns="http://www.w3.org/2000/svg">
<path d="M118.713 24.3435C49.8924 50.57 1 117.18 1 195.21C1 296.162 82.838 378 183.79 378C241.68 378 293.285 351.089 326.776 309.095M152.304 1C166.559 2.23867 179.255 5.93306 191.371 13.9136C199.447 19.2327 202.687 27.4518 207.759 35.1449C210.835 39.8107 214.235 42.2128 219.363 44.3471C221.511 45.2413 215.543 39.2482 214.948 38.4369C210.76 32.7291 209.024 25.6799 205.602 19.5741C202.554 14.1379 198.35 13.5349 192.785 11.7465C189.38 10.6524 188.961 10.2749 192.788 10.6868C199.067 11.3627 205.258 12.6608 211.547 13.2827C214.043 13.5295 216.523 13.6164 218.993 13.5911M218.993 13.5911C226.698 13.5123 234.31 12.3413 242.019 11.5227C243.22 11.3951 244.379 11.279 245.502 11.1777M218.993 13.5911C219.131 13.2528 219.57 12.97 220.375 12.757C228.314 10.6577 237.063 10.8375 245.502 11.1777M218.993 13.5911C218.012 15.9906 232.122 21.1845 237.314 24.1176C242.11 26.8268 250.79 30.9474 254.204 36.1348C258.763 43.0614 221.403 13.8472 221.352 21.4685C221.282 32.1272 244.553 71.2514 251.222 91.2387M245.502 11.1777C254.246 10.3882 260.825 10.4874 268.458 12.9572M245.502 11.1777C248.277 11.2895 251.018 11.4187 253.686 11.49C259.214 11.6375 263.847 11.9037 268.458 12.9572M268.458 12.9572C270.696 13.6815 273.025 14.6097 275.526 15.7791C278.475 17.1579 329.922 30.8965 340.338 33.1481M268.458 12.9572C271.608 13.6772 274.748 14.765 278.156 16.434C280.52 17.5924 344.628 33.6584 342.008 33.456M340.338 33.1481C341.175 33.3291 341.748 33.4359 342.008 33.456M340.338 33.1481C328.097 32.4136 256.468 41.2833 258.584 58.958C286.448 45.4203 281.271 55.99 272.8 68.2235M340.338 33.1481C341.219 33.2009 341.792 33.3035 342.008 33.456M342.008 33.456C351.676 40.2745 321.934 68.0856 322.395 76.4001M251.222 91.2387C252.547 95.2084 253.216 98.4232 252.918 100.51C252.172 97.1792 251.614 94.0927 251.222 91.2387ZM251.222 91.2387C246.552 57.2249 265.526 56.2425 272.8 68.2235M272.8 68.2235C273.221 68.9167 273.603 69.6534 273.938 70.4295M272.8 68.2235C267.7 75.5892 261.406 83.558 260.41 87.2313C261.902 86.1517 263.323 85.0976 264.673 84.0699M273.938 70.4295C274.581 71.915 275.055 73.5452 275.312 75.2929M273.938 70.4295C271.098 73.9972 267.955 78.515 264.673 84.0699M273.938 70.4295C287.623 53.24 294.265 58.105 275.312 75.2929M275.312 75.2929C276.728 84.9057 271.592 98.0728 251.917 110.259C256.165 99.7578 260.529 91.0865 264.673 84.0699M275.312 75.2929C272.395 77.9385 268.871 80.876 264.673 84.0699M322.395 76.4001C322.465 77.6613 323.229 78.474 324.932 78.6966C326.323 78.8785 327.892 79.0783 329.563 79.3206M322.395 76.4001C324.797 77.3198 327.185 78.3077 329.563 79.3206M322.395 76.4001C318.979 75.0925 315.534 73.9226 312.049 73.0142C306.499 71.5675 300.55 72.6163 294.919 72.6727C293.03 72.6916 293.78 72.2705 294.73 75.0126C297.374 82.6483 298.11 84.9581 300.79 93.6476C305.037 107.422 341.432 78.3027 341.354 92.6107C341.343 94.5278 341.149 96.9333 340.903 99.5355M329.563 79.3206C337.04 80.405 346.554 82.3411 351.279 87.3391C352.98 89.1388 346.36 86.3973 344.046 85.4772C339.24 83.5664 334.424 81.3913 329.563 79.3206ZM340.903 99.5355C340.742 101.24 340.558 103.03 340.388 104.821M340.903 99.5355C352.56 82.7912 350.638 91.2899 346.824 101.469M340.903 99.5355C339.938 100.922 338.88 102.481 337.722 104.226M340.388 104.821C339.953 109.413 339.611 114.021 339.983 117.266C340.033 117.698 343.961 109.11 346.824 101.469M340.388 104.821C339.415 104.573 338.48 104.25 337.722 104.226M340.388 104.821C342.278 105.304 344.315 105.505 345.488 102.682C345.704 102.162 346.166 101.764 346.824 101.469M346.824 101.469C352.409 98.9674 372.108 103.936 375.258 105.408C385.474 110.183 339.404 136.787 348.473 143.521C352.294 146.359 409.858 181.849 407.219 188.264C404.4 195.115 377.923 190.721 355.94 164.472C350.811 158.348 346.613 148.789 339.454 144.554C336.773 142.968 335.29 143.92 335.488 146.915C336.33 159.652 341.287 171.796 344.035 184.187C344.642 186.925 344.851 189.674 344.703 192.384M337.722 104.226C337.156 105.079 336.567 105.976 335.953 106.92C335.943 104.748 336.66 104.193 337.722 104.226ZM344.703 192.384C344.186 201.876 339.303 210.892 331.923 217.326C331.152 217.999 328.395 218.904 328.887 218.012C330.583 214.937 333.462 212.658 335.778 210.004C339.936 205.241 343.212 202.128 342.744 195.755C342.555 193.193 343.364 192.287 344.703 192.384ZM344.703 192.384C348.546 192.66 356.759 201.192 358.302 202.496C365.895 208.909 370.098 214.942 374.349 223.84C374.684 224.539 384.599 247.294 382.374 247.122C378.603 246.831 376.243 242.659 373.47 240.097C369.938 236.833 366.275 233.428 363.206 229.712C363.113 229.6 363.018 229.483 362.919 229.362M362.919 229.362C357.959 223.237 346.115 205.814 351.897 210.398C356.802 214.286 360.568 222.648 362.919 229.362ZM362.919 229.362C363.467 230.924 363.937 232.397 364.327 233.704C366.3 240.306 363.563 246.45 360.084 252.12M360.084 252.12C358.512 254.681 356.789 257.146 355.28 259.513C353.697 261.996 341.999 277.303 336.864 273.877C336.329 273.519 341.683 269.966 341.998 269.738C346.409 266.543 350.743 262.963 354.759 259.316C358.219 256.175 357.959 254.406 358.493 250.213C358.641 249.051 359.466 250.676 360.084 252.12ZM360.084 252.12C360.447 252.965 360.738 253.749 360.781 253.873C361.372 255.578 361.819 257.495 362.313 259.426M362.313 259.426C363.104 262.511 364.015 265.632 365.823 267.977C367.349 269.955 372.745 272.66 375.313 272.138C377.6 271.672 379.984 266.718 378.334 264.791C376.088 262.167 370.556 261.443 367.455 260.106C364.985 259.04 363.411 258.761 362.313 259.426ZM362.313 259.426C361.176 260.114 360.549 261.816 359.966 264.705C357.89 274.997 350.466 281.993 345.505 290.93" stroke="#FF9548" stroke-linecap="round" stroke-linejoin="round"/>
<path d="M110.072 240.864C110.072 242.102 110.319 243.019 110.811 243.612C111.317 244.194 111.949 244.484 112.707 244.484C113.124 244.484 113.49 244.402 113.806 244.238C114.135 244.061 114.476 243.777 114.83 243.385V238.135C114.4 237.756 114.015 237.496 113.674 237.357C113.332 237.218 113.004 237.149 112.688 237.149C112.22 237.149 111.784 237.282 111.38 237.547C110.988 237.8 110.672 238.204 110.432 238.76C110.192 239.303 110.072 240.005 110.072 240.864ZM115.019 245.508L114.887 244.2C114.558 244.63 114.179 244.965 113.749 245.205C113.332 245.445 112.827 245.565 112.233 245.565C111.462 245.565 110.786 245.369 110.205 244.977C109.624 244.585 109.169 244.042 108.84 243.347C108.524 242.639 108.366 241.824 108.366 240.902C108.366 239.929 108.543 239.082 108.897 238.362C109.251 237.642 109.731 237.079 110.338 236.675C110.944 236.271 111.633 236.069 112.404 236.069C112.846 236.069 113.269 236.157 113.674 236.334C114.091 236.511 114.495 236.833 114.887 237.301V233.017L113.275 232.827V232.164L116.232 231.311L116.498 231.463L116.422 234.154V244.409L117.957 244.636V245.318L115.019 245.508Z" fill="#FF9548"/>
<path d="M119.879 245.318V244.636L121.3 244.371C121.313 243.89 121.319 243.372 121.319 242.816C121.332 242.248 121.338 241.755 121.338 241.338V240.447C121.338 239.929 121.332 239.499 121.319 239.158C121.319 238.804 121.307 238.438 121.282 238.059L119.765 237.888V237.225L122.684 236.069L122.968 236.258L122.912 238.836V241.338C122.912 241.755 122.912 242.248 122.912 242.816C122.924 243.372 122.937 243.89 122.95 244.371L124.276 244.636V245.318H119.879ZM122.116 233.984C121.762 233.984 121.458 233.87 121.206 233.642C120.966 233.415 120.846 233.124 120.846 232.77C120.846 232.404 120.966 232.113 121.206 231.899C121.458 231.671 121.762 231.557 122.116 231.557C122.469 231.557 122.766 231.671 123.006 231.899C123.259 232.113 123.385 232.404 123.385 232.77C123.385 233.124 123.259 233.415 123.006 233.642C122.766 233.87 122.469 233.984 122.116 233.984Z" fill="#FF9548"/>
<path d="M130.301 241.527C130.908 241.527 131.381 241.3 131.723 240.845C132.064 240.39 132.234 239.815 132.234 239.12C132.234 238.451 132.07 237.907 131.742 237.49C131.426 237.061 130.971 236.846 130.377 236.846C129.783 236.846 129.315 237.067 128.974 237.509C128.633 237.939 128.462 238.501 128.462 239.196C128.462 239.891 128.62 240.453 128.936 240.883C129.265 241.313 129.72 241.527 130.301 241.527ZM130.339 242.286C129.846 242.286 129.379 242.216 128.936 242.077C128.62 242.482 128.462 242.886 128.462 243.29C128.462 243.543 128.532 243.745 128.671 243.897C128.823 244.048 129.12 244.124 129.562 244.124H132.045C133.094 244.124 133.865 244.339 134.357 244.769C134.85 245.198 135.097 245.799 135.097 246.569C135.097 247.113 134.92 247.637 134.566 248.143C134.225 248.648 133.707 249.059 133.012 249.375C132.317 249.691 131.451 249.849 130.415 249.849C129.037 249.849 128.039 249.634 127.42 249.204C126.801 248.774 126.491 248.225 126.491 247.555C126.491 247.151 126.624 246.772 126.889 246.418C127.167 246.077 127.654 245.735 128.349 245.394C127.515 245.167 127.098 244.687 127.098 243.954C127.098 243.65 127.193 243.334 127.382 243.006C127.584 242.677 127.919 242.292 128.387 241.85C127.932 241.597 127.572 241.249 127.306 240.807C127.054 240.365 126.927 239.822 126.927 239.177C126.927 238.179 127.249 237.414 127.894 236.884C128.551 236.34 129.372 236.069 130.358 236.069C131.356 236.069 132.159 236.315 132.765 236.808L134.907 236.069L135.191 236.258V237.452H133.334C133.624 237.92 133.77 238.495 133.77 239.177C133.77 240.175 133.441 240.946 132.784 241.49C132.14 242.02 131.325 242.286 130.339 242.286ZM128.045 247.252C128.045 247.871 128.267 248.313 128.709 248.579C129.151 248.844 129.745 248.977 130.491 248.977C131.527 248.977 132.317 248.787 132.86 248.408C133.403 248.042 133.675 247.593 133.675 247.062C133.675 246.645 133.53 246.291 133.239 246.001C132.948 245.723 132.462 245.584 131.78 245.584H129.562C129.435 245.584 129.303 245.577 129.164 245.565C129.037 245.565 128.911 245.558 128.785 245.546C128.519 245.824 128.33 246.096 128.216 246.361C128.102 246.639 128.045 246.936 128.045 247.252Z" fill="#FF9548"/>
<path d="M137.23 245.318V244.636L138.652 244.371C138.665 243.89 138.671 243.372 138.671 242.816C138.684 242.248 138.69 241.755 138.69 241.338V240.447C138.69 239.929 138.684 239.499 138.671 239.158C138.671 238.804 138.658 238.438 138.633 238.059L137.117 237.888V237.225L140.036 236.069L140.32 236.258L140.263 238.836V241.338C140.263 241.755 140.263 242.248 140.263 242.816C140.276 243.372 140.288 243.89 140.301 244.371L141.628 244.636V245.318H137.23ZM139.467 233.984C139.113 233.984 138.81 233.87 138.557 233.642C138.317 233.415 138.197 233.124 138.197 232.77C138.197 232.404 138.317 232.113 138.557 231.899C138.81 231.671 139.113 231.557 139.467 231.557C139.821 231.557 140.118 231.671 140.358 231.899C140.611 232.113 140.737 232.404 140.737 232.77C140.737 233.124 140.611 233.415 140.358 233.642C140.118 233.87 139.821 233.984 139.467 233.984Z" fill="#FF9548"/>
<path d="M147.046 245.565C146.389 245.565 145.865 245.388 145.473 245.034C145.081 244.68 144.885 244.137 144.885 243.404C144.885 243.164 144.885 242.93 144.885 242.703C144.898 242.463 144.904 242.159 144.904 241.793V237.32H143.331V236.486L145.018 236.277L145.511 233.737H146.648L146.534 236.315H149.093V237.32H146.515V243.195C146.515 243.676 146.61 244.029 146.8 244.257C146.989 244.472 147.242 244.579 147.558 244.579C147.773 244.579 147.975 244.535 148.164 244.446C148.367 244.358 148.588 244.232 148.828 244.067L149.283 244.56C148.765 245.23 148.019 245.565 147.046 245.565Z" fill="#FF9548"/>
<path d="M158.157 245.508C157.702 245.508 157.323 245.375 157.02 245.11C156.717 244.845 156.527 244.491 156.451 244.048C155.933 244.554 155.478 244.933 155.086 245.186C154.695 245.438 154.221 245.565 153.665 245.565C152.97 245.565 152.37 245.369 151.864 244.977C151.371 244.573 151.125 243.979 151.125 243.195C151.125 242.829 151.207 242.488 151.371 242.172C151.548 241.856 151.864 241.546 152.319 241.243C152.774 240.94 153.425 240.637 154.271 240.333C154.562 240.232 154.897 240.125 155.276 240.011C155.655 239.897 156.034 239.796 156.413 239.708V239.234C156.413 238.312 156.274 237.699 155.996 237.395C155.718 237.092 155.263 236.94 154.632 236.94C154.493 236.94 154.335 236.947 154.158 236.959C153.993 236.972 153.81 237.004 153.608 237.054L153.248 238.286C153.071 238.893 152.742 239.196 152.262 239.196C151.732 239.196 151.435 238.937 151.371 238.419C151.548 237.699 151.965 237.13 152.622 236.713C153.292 236.283 154.107 236.069 155.068 236.069C156.066 236.069 156.805 236.321 157.285 236.827C157.765 237.32 158.005 238.166 158.005 239.367V243.404C158.005 243.808 158.069 244.099 158.195 244.276C158.321 244.44 158.486 244.522 158.688 244.522C158.852 244.522 158.991 244.484 159.105 244.409C159.219 244.333 159.326 244.232 159.427 244.105L159.806 244.522C159.579 244.889 159.326 245.148 159.048 245.299C158.783 245.438 158.486 245.508 158.157 245.508ZM152.812 242.911C152.812 243.417 152.957 243.777 153.248 243.992C153.539 244.206 153.899 244.314 154.328 244.314C154.518 244.314 154.695 244.289 154.859 244.238C155.036 244.187 155.244 244.093 155.485 243.954C155.725 243.802 156.034 243.587 156.413 243.309V240.409C156.085 240.498 155.763 240.599 155.447 240.712C155.131 240.814 154.872 240.902 154.669 240.978C154.126 241.193 153.722 241.414 153.456 241.641C153.191 241.869 153.014 242.09 152.926 242.305C152.85 242.519 152.812 242.722 152.812 242.911Z" fill="#FF9548"/>
<path d="M161.337 245.318V244.636L162.854 244.371C162.866 243.853 162.873 243.347 162.873 242.854C162.885 242.349 162.892 241.843 162.892 241.338V233.017L161.337 232.827V232.164L164.294 231.311L164.56 231.463L164.484 234.154V241.338C164.484 241.843 164.484 242.349 164.484 242.854C164.497 243.36 164.509 243.865 164.522 244.371L166.038 244.636V245.318H161.337Z" fill="#FF9548"/>
<path d="M177.927 236.94C177.574 236.94 177.213 237.042 176.847 237.244C176.493 237.446 176.184 237.768 175.918 238.21C175.665 238.653 175.501 239.24 175.425 239.973H178.875C179.33 239.973 179.627 239.878 179.766 239.689C179.918 239.499 179.993 239.266 179.993 238.988C179.993 238.621 179.899 238.286 179.709 237.983C179.532 237.667 179.286 237.414 178.97 237.225C178.667 237.035 178.319 236.94 177.927 236.94ZM177.908 245.565C176.632 245.565 175.609 245.154 174.838 244.333C174.067 243.499 173.682 242.355 173.682 240.902C173.682 239.929 173.877 239.082 174.269 238.362C174.674 237.642 175.204 237.079 175.861 236.675C176.531 236.271 177.258 236.069 178.041 236.069C178.698 236.069 179.292 236.214 179.823 236.505C180.354 236.795 180.777 237.212 181.093 237.756C181.409 238.286 181.567 238.937 181.567 239.708C181.567 239.923 181.554 240.125 181.529 240.314C181.503 240.491 181.472 240.643 181.434 240.769H175.387C175.413 241.932 175.703 242.816 176.259 243.423C176.815 244.029 177.548 244.333 178.458 244.333C179.065 244.333 179.57 244.213 179.974 243.973C180.379 243.72 180.752 243.398 181.093 243.006L181.548 243.366C181.194 244.036 180.714 244.573 180.107 244.977C179.501 245.369 178.768 245.565 177.908 245.565Z" fill="#FF9548"/>
<path d="M187.23 245.565C186.699 245.565 186.212 245.502 185.77 245.375C185.328 245.262 184.873 245.085 184.405 244.845L184.33 242.76H185.372L185.732 244.409C186.174 244.611 186.686 244.712 187.268 244.712C187.988 244.712 188.519 244.579 188.86 244.314C189.214 244.048 189.39 243.701 189.39 243.271C189.39 242.867 189.245 242.545 188.954 242.305C188.664 242.052 188.222 241.824 187.628 241.622L186.756 241.3C186.061 241.047 185.505 240.719 185.088 240.314C184.671 239.91 184.462 239.386 184.462 238.741C184.462 238.274 184.589 237.838 184.841 237.433C185.094 237.029 185.467 236.7 185.96 236.448C186.452 236.195 187.053 236.069 187.76 236.069C188.278 236.069 188.746 236.138 189.163 236.277C189.593 236.403 190.01 236.593 190.414 236.846L190.338 238.779H189.353L189.049 237.263C188.62 237.048 188.184 236.94 187.741 236.94C187.16 236.94 186.718 237.061 186.415 237.301C186.124 237.528 185.979 237.838 185.979 238.229C185.979 238.646 186.105 238.962 186.358 239.177C186.623 239.392 187.078 239.619 187.722 239.859L188.31 240.068C189.258 240.422 189.927 240.826 190.319 241.281C190.724 241.736 190.926 242.26 190.926 242.854C190.926 243.334 190.787 243.783 190.509 244.2C190.231 244.604 189.82 244.933 189.277 245.186C188.733 245.438 188.051 245.565 187.23 245.565Z" fill="#FF9548"/>
<path d="M193.083 249.849V249.185L194.6 248.92C194.612 248.402 194.619 247.884 194.619 247.365C194.631 246.86 194.638 246.355 194.638 245.849V240.428C194.638 239.91 194.631 239.48 194.619 239.139C194.619 238.798 194.606 238.438 194.581 238.059L193.083 237.888V237.225L195.737 236.069L196.021 236.258L196.135 237.49C197.032 236.542 197.986 236.069 198.997 236.069C199.679 236.069 200.292 236.258 200.836 236.637C201.379 237.016 201.809 237.56 202.125 238.267C202.453 238.962 202.617 239.803 202.617 240.788C202.617 241.761 202.447 242.608 202.106 243.328C201.764 244.036 201.297 244.585 200.703 244.977C200.122 245.369 199.458 245.565 198.713 245.565C198.283 245.565 197.854 245.476 197.424 245.299C197.007 245.123 196.596 244.8 196.192 244.333V245.83C196.192 246.336 196.192 246.841 196.192 247.347C196.204 247.865 196.217 248.383 196.23 248.901L197.955 249.185V249.849H193.083ZM198.542 237.149C198.252 237.149 197.917 237.225 197.538 237.376C197.159 237.515 196.729 237.787 196.249 238.191V243.518C196.603 243.859 196.95 244.105 197.291 244.257C197.632 244.409 197.98 244.484 198.334 244.484C199.041 244.484 199.648 244.2 200.153 243.631C200.659 243.063 200.912 242.166 200.912 240.94C200.912 239.727 200.69 238.792 200.248 238.135C199.806 237.478 199.237 237.149 198.542 237.149Z" fill="#FF9548"/>
<path d="M205.214 245.318V244.636L206.579 244.39C206.592 243.909 206.598 243.391 206.598 242.835C206.611 242.267 206.617 241.768 206.617 241.338V240.428C206.617 239.91 206.611 239.48 206.598 239.139C206.598 238.798 206.585 238.438 206.56 238.059L205.063 237.888V237.225L207.716 236.069L208.001 236.258L208.209 238.495C208.525 237.737 208.929 237.143 209.422 236.713C209.928 236.283 210.433 236.069 210.939 236.069C211.229 236.069 211.501 236.132 211.754 236.258C212.006 236.384 212.19 236.555 212.303 236.77C212.303 237.692 211.931 238.154 211.185 238.154C210.97 238.154 210.768 238.116 210.578 238.04C210.389 237.951 210.206 237.831 210.029 237.68L209.801 237.471C209.422 237.749 209.106 238.09 208.854 238.495C208.601 238.899 208.392 239.373 208.228 239.916V241.338C208.228 241.755 208.228 242.241 208.228 242.797C208.241 243.353 208.253 243.872 208.266 244.352L209.82 244.636V245.318H205.214Z" fill="#FF9548"/>
<path d="M218.295 236.94C217.941 236.94 217.581 237.042 217.214 237.244C216.86 237.446 216.551 237.768 216.285 238.21C216.033 238.653 215.868 239.24 215.793 239.973H219.242C219.697 239.973 219.994 239.878 220.133 239.689C220.285 239.499 220.361 239.266 220.361 238.988C220.361 238.621 220.266 238.286 220.076 237.983C219.899 237.667 219.653 237.414 219.337 237.225C219.034 237.035 218.686 236.94 218.295 236.94ZM218.276 245.565C216.999 245.565 215.976 245.154 215.205 244.333C214.434 243.499 214.049 242.355 214.049 240.902C214.049 239.929 214.245 239.082 214.636 238.362C215.041 237.642 215.571 237.079 216.229 236.675C216.898 236.271 217.625 236.069 218.408 236.069C219.065 236.069 219.659 236.214 220.19 236.505C220.721 236.795 221.144 237.212 221.46 237.756C221.776 238.286 221.934 238.937 221.934 239.708C221.934 239.923 221.921 240.125 221.896 240.314C221.871 240.491 221.839 240.643 221.801 240.769H215.755C215.78 241.932 216.071 242.816 216.627 243.423C217.183 244.029 217.915 244.333 218.825 244.333C219.432 244.333 219.937 244.213 220.342 243.973C220.746 243.72 221.119 243.398 221.46 243.006L221.915 243.366C221.561 244.036 221.081 244.573 220.474 244.977C219.868 245.369 219.135 245.565 218.276 245.565Z" fill="#FF9548"/>
<path d="M227.597 245.565C227.066 245.565 226.58 245.502 226.137 245.375C225.695 245.262 225.24 245.085 224.773 244.845L224.697 242.76H225.739L226.099 244.409C226.542 244.611 227.053 244.712 227.635 244.712C228.355 244.712 228.886 244.579 229.227 244.314C229.581 244.048 229.758 243.701 229.758 243.271C229.758 242.867 229.612 242.545 229.322 242.305C229.031 242.052 228.589 241.824 227.995 241.622L227.123 241.3C226.428 241.047 225.872 240.719 225.455 240.314C225.038 239.91 224.829 239.386 224.829 238.741C224.829 238.274 224.956 237.838 225.209 237.433C225.461 237.029 225.834 236.7 226.327 236.448C226.82 236.195 227.42 236.069 228.128 236.069C228.646 236.069 229.113 236.138 229.53 236.277C229.96 236.403 230.377 236.593 230.781 236.846L230.705 238.779H229.72L229.416 237.263C228.987 237.048 228.551 236.94 228.109 236.94C227.527 236.94 227.085 237.061 226.782 237.301C226.491 237.528 226.346 237.838 226.346 238.229C226.346 238.646 226.472 238.962 226.725 239.177C226.99 239.392 227.445 239.619 228.09 239.859L228.677 240.068C229.625 240.422 230.295 240.826 230.686 241.281C231.091 241.736 231.293 242.26 231.293 242.854C231.293 243.334 231.154 243.783 230.876 244.2C230.598 244.604 230.187 244.933 229.644 245.186C229.101 245.438 228.418 245.565 227.597 245.565Z" fill="#FF9548"/>
<path d="M236.763 245.565C236.232 245.565 235.746 245.502 235.304 245.375C234.861 245.262 234.406 245.085 233.939 244.845L233.863 242.76H234.906L235.266 244.409C235.708 244.611 236.22 244.712 236.801 244.712C237.521 244.712 238.052 244.579 238.393 244.314C238.747 244.048 238.924 243.701 238.924 243.271C238.924 242.867 238.779 242.545 238.488 242.305C238.197 242.052 237.755 241.824 237.161 241.622L236.289 241.3C235.594 241.047 235.038 240.719 234.621 240.314C234.204 239.91 233.996 239.386 233.996 238.741C233.996 238.274 234.122 237.838 234.375 237.433C234.628 237.029 235 236.7 235.493 236.448C235.986 236.195 236.586 236.069 237.294 236.069C237.812 236.069 238.279 236.138 238.696 236.277C239.126 236.403 239.543 236.593 239.947 236.846L239.872 238.779H238.886L238.583 237.263C238.153 237.048 237.717 236.94 237.275 236.94C236.694 236.94 236.251 237.061 235.948 237.301C235.657 237.528 235.512 237.838 235.512 238.229C235.512 238.646 235.638 238.962 235.891 239.177C236.157 239.392 236.611 239.619 237.256 239.859L237.843 240.068C238.791 240.422 239.461 240.826 239.853 241.281C240.257 241.736 240.459 242.26 240.459 242.854C240.459 243.334 240.32 243.783 240.042 244.2C239.764 244.604 239.354 244.933 238.81 245.186C238.267 245.438 237.584 245.565 236.763 245.565Z" fill="#FF9548"/>
<path d="M247.332 245.565C246.599 245.565 245.898 245.394 245.228 245.053C244.571 244.699 244.034 244.175 243.617 243.48C243.2 242.772 242.991 241.9 242.991 240.864C242.991 239.815 243.2 238.937 243.617 238.229C244.034 237.509 244.571 236.972 245.228 236.618C245.898 236.252 246.599 236.069 247.332 236.069C248.065 236.069 248.76 236.252 249.417 236.618C250.087 236.972 250.63 237.509 251.047 238.229C251.477 238.937 251.692 239.815 251.692 240.864C251.692 241.9 251.477 242.772 251.047 243.48C250.63 244.175 250.087 244.699 249.417 245.053C248.76 245.394 248.065 245.565 247.332 245.565ZM247.332 244.712C248.153 244.712 248.785 244.39 249.227 243.745C249.67 243.088 249.891 242.128 249.891 240.864C249.891 239.588 249.67 238.615 249.227 237.945C248.785 237.275 248.153 236.94 247.332 236.94C246.511 236.94 245.879 237.275 245.437 237.945C245.007 238.615 244.792 239.588 244.792 240.864C244.792 242.128 245.007 243.088 245.437 243.745C245.879 244.39 246.511 244.712 247.332 244.712Z" fill="#FF9548"/>
<mask id="path-3-outside-1" maskUnits="userSpaceOnUse" x="58.759" y="149.546" width="241" height="71" fill="black">
<rect fill="white" x="58.759" y="149.546" width="241" height="71"/>
<path d="M87.0772 208.232C89.1457 208.029 90.7853 207.877 91.996 207.776C93.3582 207.675 95.023 207.574 96.9905 207.473V205.803C95.1743 205.803 93.8627 205.373 93.0555 204.512C92.2483 203.703 91.8447 202.463 91.8447 200.793V151.305L80.7206 155.1L81.099 156.238C83.4701 156.238 85.0845 156.466 85.9421 156.922C86.7998 157.428 87.2286 158.338 87.2286 159.654V174.455C85.9169 173.089 84.5548 172.077 83.1422 171.419C81.2251 170.559 78.854 170.129 76.0288 170.129C70.6812 170.129 66.5444 172.153 63.6183 176.201C61.0454 179.743 59.759 184.246 59.759 189.711C59.759 194.974 61.0959 199.427 63.7697 203.07C66.7462 207.118 70.8326 209.142 76.0288 209.142C78.7027 209.142 81.0486 208.687 83.0665 207.776C84.6809 207.017 86.0178 206.056 87.0772 204.892V208.232ZM87.2286 177.339V202.084L86.7745 202.463C85.7656 203.677 84.7818 204.538 83.8233 205.044C82.1584 206.005 80.09 206.486 77.618 206.486C73.3803 206.486 70.1263 204.74 67.8561 201.249C65.8885 198.263 64.9048 194.417 64.9048 189.711C64.9048 185.005 65.8885 181.109 67.8561 178.022C70.1263 174.531 73.3803 172.785 77.618 172.785C79.9891 172.785 81.9314 173.165 83.4449 173.924C84.807 174.632 86.0683 175.771 87.2286 177.339Z"/>
<path d="M114.865 150.546C113.503 150.546 112.468 150.951 111.762 151.76C111.106 152.469 110.778 153.379 110.778 154.493C110.778 155.505 111.106 156.365 111.762 157.073C112.468 157.883 113.503 158.288 114.865 158.288C116.126 158.288 117.135 157.883 117.892 157.073C118.598 156.365 118.951 155.505 118.951 154.493C118.951 153.379 118.598 152.469 117.892 151.76C117.135 150.951 116.126 150.546 114.865 150.546ZM107.297 207.852V205.879C109.164 205.879 110.476 205.626 111.232 205.12C112.04 204.614 112.443 203.602 112.443 202.084V178.326C112.443 177.162 112.115 176.302 111.459 175.745C110.652 175.138 109.24 174.835 107.222 174.835L106.995 173.696L117.059 170.129V202.084C117.059 203.602 117.412 204.614 118.119 205.12C118.825 205.626 120.212 205.879 122.281 205.879V207.852H107.297Z"/>
<path d="M151.052 170.129C146.764 170.129 143.308 171.191 140.685 173.317C137.859 175.543 136.447 178.579 136.447 182.425C136.447 184.854 137.078 187.055 138.339 189.028C139.55 190.901 141.214 192.343 143.333 193.355C141.416 194.013 139.978 194.62 139.02 195.176C137.355 196.138 136.523 197.15 136.523 198.212C136.523 199.275 137.078 200.161 138.187 200.869C139.449 201.679 141.492 202.362 144.317 202.918C141.542 203.526 139.095 204.462 136.977 205.727C134.404 207.295 133.117 208.94 133.117 210.66C133.117 213.292 134.505 215.291 137.279 216.657C140.256 218.074 144.847 218.782 151.052 218.782C156.803 218.782 161.243 218.15 164.371 216.884C168.003 215.417 169.819 213.115 169.819 209.977C169.819 207.548 168.861 205.626 166.943 204.209C165.279 202.994 162.933 202.134 159.906 201.628L152.944 200.49L144.317 199.123C143.056 198.87 142.198 198.466 141.744 197.909C141.391 197.555 141.24 197.074 141.29 196.467C141.29 196.011 141.668 195.556 142.425 195.101C143.131 194.696 144.065 194.367 145.225 194.114C146.285 194.417 147.268 194.594 148.176 194.645C148.782 194.746 149.74 194.797 151.052 194.797C155.138 194.797 158.518 193.709 161.192 191.533C164.017 189.256 165.43 186.245 165.43 182.501C165.43 181.084 165.178 179.692 164.673 178.326C164.169 177.01 163.513 175.796 162.706 174.683C163.513 174.025 164.244 173.721 164.9 173.772C165.304 173.823 165.884 174.076 166.641 174.531C167.044 174.733 167.347 174.885 167.549 174.986C167.952 175.189 168.356 175.29 168.76 175.29C169.516 175.29 170.147 174.986 170.652 174.379C171.206 173.823 171.484 173.139 171.484 172.33C171.484 171.571 171.08 170.938 170.273 170.432C169.567 169.977 168.785 169.749 167.927 169.749C166.868 169.749 165.758 170.053 164.598 170.66C163.437 171.267 162.353 172.127 161.344 173.241C160.335 172.33 159.073 171.621 157.56 171.115C155.643 170.458 153.474 170.129 151.052 170.129ZM152.338 216.884C147.596 216.884 143.913 216.328 141.29 215.215C138.868 214.152 137.658 212.76 137.658 211.04C137.658 209.573 138.414 208.282 139.928 207.169C141.643 205.853 144.317 204.816 147.949 204.057C149.463 204.209 151.002 204.411 152.565 204.664C153.474 204.765 154.684 204.943 156.198 205.196L158.014 205.499C160.486 205.853 162.378 206.587 163.69 207.7C164.9 208.712 165.506 209.927 165.506 211.344C165.506 212.862 164.244 214.152 161.722 215.215C159.2 216.328 156.072 216.884 152.338 216.884ZM151.052 172.026C154.129 172.026 156.526 173.114 158.241 175.29C159.754 177.162 160.511 179.541 160.511 182.425C160.511 185.258 159.754 187.637 158.241 189.56C156.526 191.786 154.129 192.899 151.052 192.899C147.874 192.899 145.427 191.786 143.712 189.56C142.198 187.687 141.441 185.309 141.441 182.425C141.441 179.541 142.198 177.162 143.712 175.29C145.427 173.114 147.874 172.026 151.052 172.026Z"/>
<path d="M190.191 150.546C188.828 150.546 187.794 150.951 187.088 151.76C186.432 152.469 186.104 153.379 186.104 154.493C186.104 155.505 186.432 156.365 187.088 157.073C187.794 157.883 188.828 158.288 190.191 158.288C191.452 158.288 192.461 157.883 193.217 157.073C193.924 156.365 194.277 155.505 194.277 154.493C194.277 153.379 193.924 152.469 193.217 151.76C192.461 150.951 191.452 150.546 190.191 150.546ZM182.623 207.852V205.879C184.49 205.879 185.801 205.626 186.558 205.12C187.365 204.614 187.769 203.602 187.769 202.084V178.326C187.769 177.162 187.441 176.302 186.785 175.745C185.978 175.138 184.565 174.835 182.547 174.835L182.32 173.696L192.385 170.129V202.084C192.385 203.602 192.738 204.614 193.444 205.12C194.151 205.626 195.538 205.879 197.607 205.879V207.852H182.623Z"/>
<path d="M243.556 198.896C241.588 201.375 239.444 203.222 237.123 204.436C234.752 205.702 232.053 206.334 229.026 206.334C224.89 206.334 221.585 204.993 219.113 202.311C216.288 199.225 214.875 194.544 214.875 188.269H244.237C244.237 182.551 242.723 178.073 239.696 174.835C236.72 171.697 232.684 170.129 227.589 170.129C222.291 170.129 217.978 172.001 214.648 175.745C211.47 179.389 209.881 183.968 209.881 189.484C209.881 195.354 211.52 200.11 214.8 203.753C218.129 207.346 222.518 209.142 227.967 209.142C232.003 209.142 235.459 208.232 238.334 206.41C240.655 204.943 242.774 202.767 244.691 199.882L243.556 198.896ZM239.167 186.068H214.875C215.077 182.071 216.414 178.706 218.886 175.973C221.308 173.342 224.183 172.026 227.513 172.026C231.044 172.026 233.794 173.139 235.761 175.366C237.779 177.694 238.914 181.261 239.167 186.068Z"/>
<path d="M273.311 170.66H257.646V172.633C259.16 172.633 260.446 172.886 261.506 173.392C262.464 173.898 263.423 174.733 264.381 175.897L275.354 189.332L265.592 201.097C263.877 203.121 262.313 204.436 260.9 205.044C259.79 205.6 258.277 205.879 256.36 205.879V207.852H270.965V205.879C268.543 205.879 267.105 205.6 266.651 205.044C266.147 204.487 266.399 203.45 267.408 201.932L276.565 191.002L286.554 203.298C287.361 204.108 287.361 204.765 286.554 205.271C286.1 205.676 284.712 205.879 282.392 205.879V207.852H298.586V205.879C296.871 205.879 295.534 205.676 294.575 205.271C293.566 204.917 292.759 204.259 292.154 203.298L279.365 187.51L288.975 175.745C289.782 174.632 290.817 173.848 292.078 173.392C293.39 172.886 295.105 172.633 297.224 172.633V170.66H282.997V172.633C285.116 172.633 286.453 172.836 287.008 173.241C287.512 173.645 287.411 174.354 286.705 175.366L278.078 185.765L269.603 175.214C268.745 174.202 268.594 173.519 269.149 173.165C269.653 172.811 271.041 172.633 273.311 172.633V170.66Z"/>
</mask>
<path d="M87.0772 208.232C89.1457 208.029 90.7853 207.877 91.996 207.776C93.3582 207.675 95.023 207.574 96.9905 207.473V205.803C95.1743 205.803 93.8627 205.373 93.0555 204.512C92.2483 203.703 91.8447 202.463 91.8447 200.793V151.305L80.7206 155.1L81.099 156.238C83.4701 156.238 85.0845 156.466 85.9421 156.922C86.7998 157.428 87.2286 158.338 87.2286 159.654V174.455C85.9169 173.089 84.5548 172.077 83.1422 171.419C81.2251 170.559 78.854 170.129 76.0288 170.129C70.6812 170.129 66.5444 172.153 63.6183 176.201C61.0454 179.743 59.759 184.246 59.759 189.711C59.759 194.974 61.0959 199.427 63.7697 203.07C66.7462 207.118 70.8326 209.142 76.0288 209.142C78.7027 209.142 81.0486 208.687 83.0665 207.776C84.6809 207.017 86.0178 206.056 87.0772 204.892V208.232ZM87.2286 177.339V202.084L86.7745 202.463C85.7656 203.677 84.7818 204.538 83.8233 205.044C82.1584 206.005 80.09 206.486 77.618 206.486C73.3803 206.486 70.1263 204.74 67.8561 201.249C65.8885 198.263 64.9048 194.417 64.9048 189.711C64.9048 185.005 65.8885 181.109 67.8561 178.022C70.1263 174.531 73.3803 172.785 77.618 172.785C79.9891 172.785 81.9314 173.165 83.4449 173.924C84.807 174.632 86.0683 175.771 87.2286 177.339Z" fill="#FF9548"/>
<path d="M114.865 150.546C113.503 150.546 112.468 150.951 111.762 151.76C111.106 152.469 110.778 153.379 110.778 154.493C110.778 155.505 111.106 156.365 111.762 157.073C112.468 157.883 113.503 158.288 114.865 158.288C116.126 158.288 117.135 157.883 117.892 157.073C118.598 156.365 118.951 155.505 118.951 154.493C118.951 153.379 118.598 152.469 117.892 151.76C117.135 150.951 116.126 150.546 114.865 150.546ZM107.297 207.852V205.879C109.164 205.879 110.476 205.626 111.232 205.12C112.04 204.614 112.443 203.602 112.443 202.084V178.326C112.443 177.162 112.115 176.302 111.459 175.745C110.652 175.138 109.24 174.835 107.222 174.835L106.995 173.696L117.059 170.129V202.084C117.059 203.602 117.412 204.614 118.119 205.12C118.825 205.626 120.212 205.879 122.281 205.879V207.852H107.297Z" fill="#FF9548"/>
<path d="M151.052 170.129C146.764 170.129 143.308 171.191 140.685 173.317C137.859 175.543 136.447 178.579 136.447 182.425C136.447 184.854 137.078 187.055 138.339 189.028C139.55 190.901 141.214 192.343 143.333 193.355C141.416 194.013 139.978 194.62 139.02 195.176C137.355 196.138 136.523 197.15 136.523 198.212C136.523 199.275 137.078 200.161 138.187 200.869C139.449 201.679 141.492 202.362 144.317 202.918C141.542 203.526 139.095 204.462 136.977 205.727C134.404 207.295 133.117 208.94 133.117 210.66C133.117 213.292 134.505 215.291 137.279 216.657C140.256 218.074 144.847 218.782 151.052 218.782C156.803 218.782 161.243 218.15 164.371 216.884C168.003 215.417 169.819 213.115 169.819 209.977C169.819 207.548 168.861 205.626 166.943 204.209C165.279 202.994 162.933 202.134 159.906 201.628L152.944 200.49L144.317 199.123C143.056 198.87 142.198 198.466 141.744 197.909C141.391 197.555 141.24 197.074 141.29 196.467C141.29 196.011 141.668 195.556 142.425 195.101C143.131 194.696 144.065 194.367 145.225 194.114C146.285 194.417 147.268 194.594 148.176 194.645C148.782 194.746 149.74 194.797 151.052 194.797C155.138 194.797 158.518 193.709 161.192 191.533C164.017 189.256 165.43 186.245 165.43 182.501C165.43 181.084 165.178 179.692 164.673 178.326C164.169 177.01 163.513 175.796 162.706 174.683C163.513 174.025 164.244 173.721 164.9 173.772C165.304 173.823 165.884 174.076 166.641 174.531C167.044 174.733 167.347 174.885 167.549 174.986C167.952 175.189 168.356 175.29 168.76 175.29C169.516 175.29 170.147 174.986 170.652 174.379C171.206 173.823 171.484 173.139 171.484 172.33C171.484 171.571 171.08 170.938 170.273 170.432C169.567 169.977 168.785 169.749 167.927 169.749C166.868 169.749 165.758 170.053 164.598 170.66C163.437 171.267 162.353 172.127 161.344 173.241C160.335 172.33 159.073 171.621 157.56 171.115C155.643 170.458 153.474 170.129 151.052 170.129ZM152.338 216.884C147.596 216.884 143.913 216.328 141.29 215.215C138.868 214.152 137.658 212.76 137.658 211.04C137.658 209.573 138.414 208.282 139.928 207.169C141.643 205.853 144.317 204.816 147.949 204.057C149.463 204.209 151.002 204.411 152.565 204.664C153.474 204.765 154.684 204.943 156.198 205.196L158.014 205.499C160.486 205.853 162.378 206.587 163.69 207.7C164.9 208.712 165.506 209.927 165.506 211.344C165.506 212.862 164.244 214.152 161.722 215.215C159.2 216.328 156.072 216.884 152.338 216.884ZM151.052 172.026C154.129 172.026 156.526 173.114 158.241 175.29C159.754 177.162 160.511 179.541 160.511 182.425C160.511 185.258 159.754 187.637 158.241 189.56C156.526 191.786 154.129 192.899 151.052 192.899C147.874 192.899 145.427 191.786 143.712 189.56C142.198 187.687 141.441 185.309 141.441 182.425C141.441 179.541 142.198 177.162 143.712 175.29C145.427 173.114 147.874 172.026 151.052 172.026Z" fill="#FF9548"/>
<path d="M190.191 150.546C188.828 150.546 187.794 150.951 187.088 151.76C186.432 152.469 186.104 153.379 186.104 154.493C186.104 155.505 186.432 156.365 187.088 157.073C187.794 157.883 188.828 158.288 190.191 158.288C191.452 158.288 192.461 157.883 193.217 157.073C193.924 156.365 194.277 155.505 194.277 154.493C194.277 153.379 193.924 152.469 193.217 151.76C192.461 150.951 191.452 150.546 190.191 150.546ZM182.623 207.852V205.879C184.49 205.879 185.801 205.626 186.558 205.12C187.365 204.614 187.769 203.602 187.769 202.084V178.326C187.769 177.162 187.441 176.302 186.785 175.745C185.978 175.138 184.565 174.835 182.547 174.835L182.32 173.696L192.385 170.129V202.084C192.385 203.602 192.738 204.614 193.444 205.12C194.151 205.626 195.538 205.879 197.607 205.879V207.852H182.623Z" fill="#FF9548"/>
<path d="M243.556 198.896C241.588 201.375 239.444 203.222 237.123 204.436C234.752 205.702 232.053 206.334 229.026 206.334C224.89 206.334 221.585 204.993 219.113 202.311C216.288 199.225 214.875 194.544 214.875 188.269H244.237C244.237 182.551 242.723 178.073 239.696 174.835C236.72 171.697 232.684 170.129 227.589 170.129C222.291 170.129 217.978 172.001 214.648 175.745C211.47 179.389 209.881 183.968 209.881 189.484C209.881 195.354 211.52 200.11 214.8 203.753C218.129 207.346 222.518 209.142 227.967 209.142C232.003 209.142 235.459 208.232 238.334 206.41C240.655 204.943 242.774 202.767 244.691 199.882L243.556 198.896ZM239.167 186.068H214.875C215.077 182.071 216.414 178.706 218.886 175.973C221.308 173.342 224.183 172.026 227.513 172.026C231.044 172.026 233.794 173.139 235.761 175.366C237.779 177.694 238.914 181.261 239.167 186.068Z" fill="#FF9548"/>
<path d="M273.311 170.66H257.646V172.633C259.16 172.633 260.446 172.886 261.506 173.392C262.464 173.898 263.423 174.733 264.381 175.897L275.354 189.332L265.592 201.097C263.877 203.121 262.313 204.436 260.9 205.044C259.79 205.6 258.277 205.879 256.36 205.879V207.852H270.965V205.879C268.543 205.879 267.105 205.6 266.651 205.044C266.147 204.487 266.399 203.45 267.408 201.932L276.565 191.002L286.554 203.298C287.361 204.108 287.361 204.765 286.554 205.271C286.1 205.676 284.712 205.879 282.392 205.879V207.852H298.586V205.879C296.871 205.879 295.534 205.676 294.575 205.271C293.566 204.917 292.759 204.259 292.154 203.298L279.365 187.51L288.975 175.745C289.782 174.632 290.817 173.848 292.078 173.392C293.39 172.886 295.105 172.633 297.224 172.633V170.66H282.997V172.633C285.116 172.633 286.453 172.836 287.008 173.241C287.512 173.645 287.411 174.354 286.705 175.366L278.078 185.765L269.603 175.214C268.745 174.202 268.594 173.519 269.149 173.165C269.653 172.811 271.041 172.633 273.311 172.633V170.66Z" fill="#FF9548"/>
<path d="M87.0772 208.232C89.1457 208.029 90.7853 207.877 91.996 207.776C93.3582 207.675 95.023 207.574 96.9905 207.473V205.803C95.1743 205.803 93.8627 205.373 93.0555 204.512C92.2483 203.703 91.8447 202.463 91.8447 200.793V151.305L80.7206 155.1L81.099 156.238C83.4701 156.238 85.0845 156.466 85.9421 156.922C86.7998 157.428 87.2286 158.338 87.2286 159.654V174.455C85.9169 173.089 84.5548 172.077 83.1422 171.419C81.2251 170.559 78.854 170.129 76.0288 170.129C70.6812 170.129 66.5444 172.153 63.6183 176.201C61.0454 179.743 59.759 184.246 59.759 189.711C59.759 194.974 61.0959 199.427 63.7697 203.07C66.7462 207.118 70.8326 209.142 76.0288 209.142C78.7027 209.142 81.0486 208.687 83.0665 207.776C84.6809 207.017 86.0178 206.056 87.0772 204.892V208.232ZM87.2286 177.339V202.084L86.7745 202.463C85.7656 203.677 84.7818 204.538 83.8233 205.044C82.1584 206.005 80.09 206.486 77.618 206.486C73.3803 206.486 70.1263 204.74 67.8561 201.249C65.8885 198.263 64.9048 194.417 64.9048 189.711C64.9048 185.005 65.8885 181.109 67.8561 178.022C70.1263 174.531 73.3803 172.785 77.618 172.785C79.9891 172.785 81.9314 173.165 83.4449 173.924C84.807 174.632 86.0683 175.771 87.2286 177.339Z" stroke="#FF9548" stroke-width="2" mask="url(#path-3-outside-1)"/>
<path d="M114.865 150.546C113.503 150.546 112.468 150.951 111.762 151.76C111.106 152.469 110.778 153.379 110.778 154.493C110.778 155.505 111.106 156.365 111.762 157.073C112.468 157.883 113.503 158.288 114.865 158.288C116.126 158.288 117.135 157.883 117.892 157.073C118.598 156.365 118.951 155.505 118.951 154.493C118.951 153.379 118.598 152.469 117.892 151.76C117.135 150.951 116.126 150.546 114.865 150.546ZM107.297 207.852V205.879C109.164 205.879 110.476 205.626 111.232 205.12C112.04 204.614 112.443 203.602 112.443 202.084V178.326C112.443 177.162 112.115 176.302 111.459 175.745C110.652 175.138 109.24 174.835 107.222 174.835L106.995 173.696L117.059 170.129V202.084C117.059 203.602 117.412 204.614 118.119 205.12C118.825 205.626 120.212 205.879 122.281 205.879V207.852H107.297Z" stroke="#FF9548" stroke-width="2" mask="url(#path-3-outside-1)"/>
<path d="M151.052 170.129C146.764 170.129 143.308 171.191 140.685 173.317C137.859 175.543 136.447 178.579 136.447 182.425C136.447 184.854 137.078 187.055 138.339 189.028C139.55 190.901 141.214 192.343 143.333 193.355C141.416 194.013 139.978 194.62 139.02 195.176C137.355 196.138 136.523 197.15 136.523 198.212C136.523 199.275 137.078 200.161 138.187 200.869C139.449 201.679 141.492 202.362 144.317 202.918C141.542 203.526 139.095 204.462 136.977 205.727C134.404 207.295 133.117 208.94 133.117 210.66C133.117 213.292 134.505 215.291 137.279 216.657C140.256 218.074 144.847 218.782 151.052 218.782C156.803 218.782 161.243 218.15 164.371 216.884C168.003 215.417 169.819 213.115 169.819 209.977C169.819 207.548 168.861 205.626 166.943 204.209C165.279 202.994 162.933 202.134 159.906 201.628L152.944 200.49L144.317 199.123C143.056 198.87 142.198 198.466 141.744 197.909C141.391 197.555 141.24 197.074 141.29 196.467C141.29 196.011 141.668 195.556 142.425 195.101C143.131 194.696 144.065 194.367 145.225 194.114C146.285 194.417 147.268 194.594 148.176 194.645C148.782 194.746 149.74 194.797 151.052 194.797C155.138 194.797 158.518 193.709 161.192 191.533C164.017 189.256 165.43 186.245 165.43 182.501C165.43 181.084 165.178 179.692 164.673 178.326C164.169 177.01 163.513 175.796 162.706 174.683C163.513 174.025 164.244 173.721 164.9 173.772C165.304 173.823 165.884 174.076 166.641 174.531C167.044 174.733 167.347 174.885 167.549 174.986C167.952 175.189 168.356 175.29 168.76 175.29C169.516 175.29 170.147 174.986 170.652 174.379C171.206 173.823 171.484 173.139 171.484 172.33C171.484 171.571 171.08 170.938 170.273 170.432C169.567 169.977 168.785 169.749 167.927 169.749C166.868 169.749 165.758 170.053 164.598 170.66C163.437 171.267 162.353 172.127 161.344 173.241C160.335 172.33 159.073 171.621 157.56 171.115C155.643 170.458 153.474 170.129 151.052 170.129ZM152.338 216.884C147.596 216.884 143.913 216.328 141.29 215.215C138.868 214.152 137.658 212.76 137.658 211.04C137.658 209.573 138.414 208.282 139.928 207.169C141.643 205.853 144.317 204.816 147.949 204.057C149.463 204.209 151.002 204.411 152.565 204.664C153.474 204.765 154.684 204.943 156.198 205.196L158.014 205.499C160.486 205.853 162.378 206.587 163.69 207.7C164.9 208.712 165.506 209.927 165.506 211.344C165.506 212.862 164.244 214.152 161.722 215.215C159.2 216.328 156.072 216.884 152.338 216.884ZM151.052 172.026C154.129 172.026 156.526 173.114 158.241 175.29C159.754 177.162 160.511 179.541 160.511 182.425C160.511 185.258 159.754 187.637 158.241 189.56C156.526 191.786 154.129 192.899 151.052 192.899C147.874 192.899 145.427 191.786 143.712 189.56C142.198 187.687 141.441 185.309 141.441 182.425C141.441 179.541 142.198 177.162 143.712 175.29C145.427 173.114 147.874 172.026 151.052 172.026Z" stroke="#FF9548" stroke-width="2" mask="url(#path-3-outside-1)"/>
<path d="M190.191 150.546C188.828 150.546 187.794 150.951 187.088 151.76C186.432 152.469 186.104 153.379 186.104 154.493C186.104 155.505 186.432 156.365 187.088 157.073C187.794 157.883 188.828 158.288 190.191 158.288C191.452 158.288 192.461 157.883 193.217 157.073C193.924 156.365 194.277 155.505 194.277 154.493C194.277 153.379 193.924 152.469 193.217 151.76C192.461 150.951 191.452 150.546 190.191 150.546ZM182.623 207.852V205.879C184.49 205.879 185.801 205.626 186.558 205.12C187.365 204.614 187.769 203.602 187.769 202.084V178.326C187.769 177.162 187.441 176.302 186.785 175.745C185.978 175.138 184.565 174.835 182.547 174.835L182.32 173.696L192.385 170.129V202.084C192.385 203.602 192.738 204.614 193.444 205.12C194.151 205.626 195.538 205.879 197.607 205.879V207.852H182.623Z" stroke="#FF9548" stroke-width="2" mask="url(#path-3-outside-1)"/>
<path d="M243.556 198.896C241.588 201.375 239.444 203.222 237.123 204.436C234.752 205.702 232.053 206.334 229.026 206.334C224.89 206.334 221.585 204.993 219.113 202.311C216.288 199.225 214.875 194.544 214.875 188.269H244.237C244.237 182.551 242.723 178.073 239.696 174.835C236.72 171.697 232.684 170.129 227.589 170.129C222.291 170.129 217.978 172.001 214.648 175.745C211.47 179.389 209.881 183.968 209.881 189.484C209.881 195.354 211.52 200.11 214.8 203.753C218.129 207.346 222.518 209.142 227.967 209.142C232.003 209.142 235.459 208.232 238.334 206.41C240.655 204.943 242.774 202.767 244.691 199.882L243.556 198.896ZM239.167 186.068H214.875C215.077 182.071 216.414 178.706 218.886 175.973C221.308 173.342 224.183 172.026 227.513 172.026C231.044 172.026 233.794 173.139 235.761 175.366C237.779 177.694 238.914 181.261 239.167 186.068Z" stroke="#FF9548" stroke-width="2" mask="url(#path-3-outside-1)"/>
<path d="M273.311 170.66H257.646V172.633C259.16 172.633 260.446 172.886 261.506 173.392C262.464 173.898 263.423 174.733 264.381 175.897L275.354 189.332L265.592 201.097C263.877 203.121 262.313 204.436 260.9 205.044C259.79 205.6 258.277 205.879 256.36 205.879V207.852H270.965V205.879C268.543 205.879 267.105 205.6 266.651 205.044C266.147 204.487 266.399 203.45 267.408 201.932L276.565 191.002L286.554 203.298C287.361 204.108 287.361 204.765 286.554 205.271C286.1 205.676 284.712 205.879 282.392 205.879V207.852H298.586V205.879C296.871 205.879 295.534 205.676 294.575 205.271C293.566 204.917 292.759 204.259 292.154 203.298L279.365 187.51L288.975 175.745C289.782 174.632 290.817 173.848 292.078 173.392C293.39 172.886 295.105 172.633 297.224 172.633V170.66H282.997V172.633C285.116 172.633 286.453 172.836 287.008 173.241C287.512 173.645 287.411 174.354 286.705 175.366L278.078 185.765L269.603 175.214C268.745 174.202 268.594 173.519 269.149 173.165C269.653 172.811 271.041 172.633 273.311 172.633V170.66Z" stroke="#FF9548" stroke-width="2" mask="url(#path-3-outside-1)"/>
</svg>
