<svg width="12" height="249" viewBox="0 0 12 249" fill="none" xmlns="http://www.w3.org/2000/svg">
<circle cx="6" cy="6" r="5.5" stroke="#5B5149"/>
<circle cx="6" cy="53" r="5.5" stroke="#5B5149"/>
<path d="M11.5 100.5C11.5 103.852 9.00064 106.5 6 106.5C2.99936 106.5 0.5 103.852 0.5 100.5C0.5 97.1479 2.99936 94.5 6 94.5C9.00064 94.5 11.5 97.1479 11.5 100.5Z" stroke="#5B5149"/>
<path d="M11.5 148.5C11.5 151.852 9.00064 154.5 6 154.5C2.99936 154.5 0.5 151.852 0.5 148.5C0.5 145.148 2.99936 142.5 6 142.5C9.00064 142.5 11.5 145.148 11.5 148.5Z" stroke="#5B5149"/>
<circle cx="6" cy="196" r="5.5" stroke="#5B5149"/>
<circle cx="6" cy="243" r="5.5" stroke="#5B5149"/>
</svg>
