<svg width="128" height="38" viewBox="0 0 128 38" fill="none" xmlns="http://www.w3.org/2000/svg">
<mask id="path-1-outside-1" maskUnits="userSpaceOnUse" x="0" y="0" width="128" height="38" fill="black">
<rect fill="white" width="128" height="38"/>
<path d="M15.4125 31.4338C16.5038 31.327 17.3688 31.2469 18.0076 31.1935C18.7262 31.1402 19.6046 31.0868 20.6426 31.0334V30.1524C19.6844 30.1524 18.9924 29.9255 18.5665 29.4716C18.1407 29.0445 17.9278 28.3904 17.9278 27.5095V1.40044L12.0589 3.40267L12.2586 4.00334C13.5095 4.00334 14.3612 4.12347 14.8137 4.36374C15.2662 4.6307 15.4924 5.11123 15.4924 5.80534V13.614C14.8004 12.8932 14.0817 12.3593 13.3365 12.0122C12.3251 11.5584 11.0741 11.3315 9.58365 11.3315C6.76236 11.3315 4.57985 12.3993 3.03612 14.535C1.67871 16.4038 1 18.7798 1 21.663C1 24.4394 1.70532 26.7887 3.11597 28.7108C4.68631 30.8465 6.84221 31.9143 9.58365 31.9143C10.9943 31.9143 12.2319 31.6741 13.2966 31.1935C14.1483 30.7931 14.8536 30.2859 15.4125 29.6719V31.4338ZM15.4924 15.1357V28.1902L15.2529 28.3904C14.7205 29.0311 14.2015 29.485 13.6958 29.7519C12.8175 30.2592 11.7262 30.5128 10.4221 30.5128C8.18631 30.5128 6.46958 29.5918 5.27186 27.7497C4.23384 26.1746 3.71483 24.1457 3.71483 21.663C3.71483 19.1802 4.23384 17.1246 5.27186 15.4961C6.46958 13.6541 8.18631 12.733 10.4221 12.733C11.673 12.733 12.6977 12.9333 13.4962 13.3337C14.2148 13.7075 14.8802 14.3081 15.4924 15.1357Z"/>
<path d="M30.0726 1C29.354 1 28.8084 1.21357 28.4357 1.64071C28.0897 2.01446 27.9167 2.49499 27.9167 3.08231C27.9167 3.61624 28.0897 4.07008 28.4357 4.44383C28.8084 4.87097 29.354 5.08454 30.0726 5.08454C30.738 5.08454 31.2703 4.87097 31.6696 4.44383C32.0422 4.07008 32.2285 3.61624 32.2285 3.08231C32.2285 2.49499 32.0422 2.01446 31.6696 1.64071C31.2703 1.21357 30.738 1 30.0726 1ZM26.0802 31.2336V30.1924C27.065 30.1924 27.757 30.059 28.1563 29.792C28.5821 29.525 28.7951 28.9911 28.7951 28.1902V15.6563C28.7951 15.0423 28.6221 14.5884 28.276 14.2948C27.8502 13.9744 27.1049 13.8142 26.0403 13.8142L25.9205 13.2136L31.2304 11.3315V28.1902C31.2304 28.9911 31.4167 29.525 31.7894 29.792C32.162 30.059 32.8939 30.1924 33.9852 30.1924V31.2336H26.0802Z"/>
<path d="M49.1643 11.3315C46.9019 11.3315 45.0787 11.8921 43.6947 13.0133C42.2042 14.188 41.4589 15.7898 41.4589 17.8187C41.4589 19.1001 41.7916 20.2614 42.457 21.3026C43.0958 22.2903 43.9741 23.0512 45.092 23.5851C44.0806 23.9321 43.3221 24.2525 42.8163 24.5462C41.938 25.0534 41.4989 25.5873 41.4989 26.1479C41.4989 26.7086 41.7916 27.1757 42.3772 27.5495C43.0426 27.9766 44.1205 28.337 45.611 28.6307C44.1471 28.9511 42.8563 29.4449 41.7384 30.1123C40.381 30.9399 39.7023 31.8076 39.7023 32.7152C39.7023 34.1034 40.4342 35.158 41.8981 35.8788C43.4684 36.6263 45.8905 37 49.1643 37C52.1985 37 54.5407 36.6663 56.1909 35.9989C58.1072 35.2247 59.0654 34.01 59.0654 32.3548C59.0654 31.0734 58.5597 30.059 57.5483 29.3115C56.67 28.6707 55.4323 28.2169 53.8354 27.9499L50.1624 27.3493L45.611 26.6285C44.9456 26.495 44.4932 26.2814 44.2536 25.9878C44.0673 25.8009 43.9875 25.5473 44.0141 25.2269C44.0141 24.9867 44.2137 24.7464 44.6129 24.5061C44.9856 24.2925 45.4779 24.119 46.0901 23.9855C46.649 24.1457 47.1681 24.2392 47.6471 24.2659C47.9665 24.3192 48.4722 24.3459 49.1643 24.3459C51.3202 24.3459 53.1034 23.772 54.5141 22.624C56.0046 21.4227 56.7498 19.8343 56.7498 17.8587C56.7498 17.1112 56.6167 16.3771 56.3506 15.6563C56.0844 14.9622 55.7384 14.3215 55.3125 13.7341C55.7384 13.3871 56.1243 13.2269 56.4703 13.2536C56.6833 13.2803 56.9894 13.4138 57.3886 13.6541C57.6015 13.7608 57.7612 13.8409 57.8677 13.8943C58.0806 14.0011 58.2935 14.0545 58.5065 14.0545C58.9057 14.0545 59.2384 13.8943 59.5046 13.574C59.7973 13.2803 59.9437 12.9199 59.9437 12.4928C59.9437 12.0923 59.7308 11.7586 59.3049 11.4917C58.9323 11.2514 58.5198 11.1313 58.0673 11.1313C57.5084 11.1313 56.9228 11.2914 56.3106 11.6118C55.6985 11.9321 55.1262 12.386 54.5939 12.9733C54.0616 12.4928 53.3962 12.119 52.5977 11.8521C51.5863 11.505 50.4418 11.3315 49.1643 11.3315ZM49.843 35.9989C47.3411 35.9989 45.3981 35.7052 44.0141 35.1179C42.7365 34.5573 42.0977 33.8231 42.0977 32.9155C42.0977 32.1413 42.497 31.4605 43.2954 30.8732C44.2004 30.1791 45.611 29.6318 47.5274 29.2314C48.3259 29.3115 49.1376 29.4182 49.9627 29.5517C50.4418 29.6051 51.0806 29.6986 51.8791 29.832L52.8373 29.9922C54.1414 30.1791 55.1395 30.5662 55.8316 31.1535C56.4703 31.6874 56.7897 32.3281 56.7897 33.0756C56.7897 33.8765 56.1243 34.5573 54.7935 35.1179C53.4627 35.7052 51.8125 35.9989 49.843 35.9989ZM49.1643 12.3326C50.7878 12.3326 52.0521 12.9066 52.957 14.0545C53.7555 15.0423 54.1548 16.297 54.1548 17.8187C54.1548 19.3137 53.7555 20.5684 52.957 21.5829C52.0521 22.7575 50.7878 23.3448 49.1643 23.3448C47.4875 23.3448 46.1966 22.7575 45.2916 21.5829C44.4932 20.5951 44.0939 19.3404 44.0939 17.8187C44.0939 16.297 44.4932 15.0423 45.2916 14.0545C46.1966 12.9066 47.4875 12.3326 49.1643 12.3326Z"/>
<path d="M69.8129 1C69.0943 1 68.5487 1.21357 68.176 1.64071C67.83 2.01446 67.657 2.49499 67.657 3.08231C67.657 3.61624 67.83 4.07008 68.176 4.44383C68.5487 4.87097 69.0943 5.08454 69.8129 5.08454C70.4783 5.08454 71.0106 4.87097 71.4099 4.44383C71.7825 4.07008 71.9688 3.61624 71.9688 3.08231C71.9688 2.49499 71.7825 2.01446 71.4099 1.64071C71.0106 1.21357 70.4783 1 69.8129 1ZM65.8205 31.2336V30.1924C66.8053 30.1924 67.4973 30.059 67.8966 29.792C68.3224 29.525 68.5354 28.9911 68.5354 28.1902V15.6563C68.5354 15.0423 68.3624 14.5884 68.0164 14.2948C67.5905 13.9744 66.8453 13.8142 65.7806 13.8142L65.6608 13.2136L70.9707 11.3315V28.1902C70.9707 28.9911 71.157 29.525 71.5297 29.792C71.9023 30.059 72.6342 30.1924 73.7255 30.1924V31.2336H65.8205Z"/>
<path d="M97.9673 26.5083C96.9293 27.8165 95.7981 28.7909 94.5738 29.4316C93.3228 30.099 91.8989 30.4327 90.3019 30.4327C88.1194 30.4327 86.376 29.7252 85.0719 28.3103C83.5814 26.6819 82.8361 24.2125 82.8361 20.9021H98.3266C98.3266 17.8854 97.5281 15.5228 95.9312 13.8142C94.3608 12.1591 92.2316 11.3315 89.5434 11.3315C86.7487 11.3315 84.473 12.3192 82.7163 14.2948C81.0395 16.2169 80.2011 18.6329 80.2011 21.5428C80.2011 24.6396 81.0662 27.1491 82.7962 29.0712C84.5529 30.9666 86.8684 31.9143 89.743 31.9143C91.8722 31.9143 93.6954 31.4338 95.2125 30.4727C96.4369 29.6986 97.5548 28.5506 98.5662 27.0289L97.9673 26.5083ZM95.6517 19.7408H82.8361C82.9426 17.6318 83.6479 15.8565 84.9521 14.4149C86.2297 13.0267 87.7468 12.3326 89.5034 12.3326C91.3665 12.3326 92.8171 12.9199 93.8551 14.0945C94.9198 15.3226 95.5186 17.2047 95.6517 19.7408Z"/>
<path d="M113.665 11.6118H105.401V12.6529C106.2 12.6529 106.878 12.7864 107.437 13.0534C107.943 13.3204 108.449 13.7608 108.954 14.3749L114.743 21.4627L109.593 27.6696C108.688 28.7375 107.863 29.4316 107.118 29.7519C106.532 30.0456 105.734 30.1924 104.722 30.1924V31.2336H112.428V30.1924C111.15 30.1924 110.392 30.0456 110.152 29.7519C109.886 29.4583 110.019 28.911 110.551 28.1101L115.382 22.3437L120.652 28.8309C121.078 29.2581 121.078 29.6051 120.652 29.8721C120.413 30.0856 119.681 30.1924 118.456 30.1924V31.2336H127V30.1924C126.095 30.1924 125.39 30.0856 124.884 29.8721C124.352 29.6852 123.926 29.3382 123.606 28.8309L116.859 20.5017L121.93 14.2948C122.356 13.7075 122.901 13.2937 123.567 13.0534C124.259 12.7864 125.164 12.6529 126.281 12.6529V11.6118H118.776V12.6529C119.894 12.6529 120.599 12.7597 120.892 12.9733C121.158 13.1869 121.105 13.5606 120.732 14.0945L116.181 19.5806L111.709 14.0145C111.257 13.4805 111.177 13.1201 111.47 12.9333C111.736 12.7464 112.468 12.6529 113.665 12.6529V11.6118Z"/>
</mask>
<path d="M15.4125 31.4338C16.5038 31.327 17.3688 31.2469 18.0076 31.1935C18.7262 31.1402 19.6046 31.0868 20.6426 31.0334V30.1524C19.6844 30.1524 18.9924 29.9255 18.5665 29.4716C18.1407 29.0445 17.9278 28.3904 17.9278 27.5095V1.40044L12.0589 3.40267L12.2586 4.00334C13.5095 4.00334 14.3612 4.12347 14.8137 4.36374C15.2662 4.6307 15.4924 5.11123 15.4924 5.80534V13.614C14.8004 12.8932 14.0817 12.3593 13.3365 12.0122C12.3251 11.5584 11.0741 11.3315 9.58365 11.3315C6.76236 11.3315 4.57985 12.3993 3.03612 14.535C1.67871 16.4038 1 18.7798 1 21.663C1 24.4394 1.70532 26.7887 3.11597 28.7108C4.68631 30.8465 6.84221 31.9143 9.58365 31.9143C10.9943 31.9143 12.2319 31.6741 13.2966 31.1935C14.1483 30.7931 14.8536 30.2859 15.4125 29.6719V31.4338ZM15.4924 15.1357V28.1902L15.2529 28.3904C14.7205 29.0311 14.2015 29.485 13.6958 29.7519C12.8175 30.2592 11.7262 30.5128 10.4221 30.5128C8.18631 30.5128 6.46958 29.5918 5.27186 27.7497C4.23384 26.1746 3.71483 24.1457 3.71483 21.663C3.71483 19.1802 4.23384 17.1246 5.27186 15.4961C6.46958 13.6541 8.18631 12.733 10.4221 12.733C11.673 12.733 12.6977 12.9333 13.4962 13.3337C14.2148 13.7075 14.8802 14.3081 15.4924 15.1357Z" fill="#FF9548"/>
<path d="M30.0726 1C29.354 1 28.8084 1.21357 28.4357 1.64071C28.0897 2.01446 27.9167 2.49499 27.9167 3.08231C27.9167 3.61624 28.0897 4.07008 28.4357 4.44383C28.8084 4.87097 29.354 5.08454 30.0726 5.08454C30.738 5.08454 31.2703 4.87097 31.6696 4.44383C32.0422 4.07008 32.2285 3.61624 32.2285 3.08231C32.2285 2.49499 32.0422 2.01446 31.6696 1.64071C31.2703 1.21357 30.738 1 30.0726 1ZM26.0802 31.2336V30.1924C27.065 30.1924 27.757 30.059 28.1563 29.792C28.5821 29.525 28.7951 28.9911 28.7951 28.1902V15.6563C28.7951 15.0423 28.6221 14.5884 28.276 14.2948C27.8502 13.9744 27.1049 13.8142 26.0403 13.8142L25.9205 13.2136L31.2304 11.3315V28.1902C31.2304 28.9911 31.4167 29.525 31.7894 29.792C32.162 30.059 32.8939 30.1924 33.9852 30.1924V31.2336H26.0802Z" fill="#FF9548"/>
<path d="M49.1643 11.3315C46.9019 11.3315 45.0787 11.8921 43.6947 13.0133C42.2042 14.188 41.4589 15.7898 41.4589 17.8187C41.4589 19.1001 41.7916 20.2614 42.457 21.3026C43.0958 22.2903 43.9741 23.0512 45.092 23.5851C44.0806 23.9321 43.3221 24.2525 42.8163 24.5462C41.938 25.0534 41.4989 25.5873 41.4989 26.1479C41.4989 26.7086 41.7916 27.1757 42.3772 27.5495C43.0426 27.9766 44.1205 28.337 45.611 28.6307C44.1471 28.9511 42.8563 29.4449 41.7384 30.1123C40.381 30.9399 39.7023 31.8076 39.7023 32.7152C39.7023 34.1034 40.4342 35.158 41.8981 35.8788C43.4684 36.6263 45.8905 37 49.1643 37C52.1985 37 54.5407 36.6663 56.1909 35.9989C58.1072 35.2247 59.0654 34.01 59.0654 32.3548C59.0654 31.0734 58.5597 30.059 57.5483 29.3115C56.67 28.6707 55.4323 28.2169 53.8354 27.9499L50.1624 27.3493L45.611 26.6285C44.9456 26.495 44.4932 26.2814 44.2536 25.9878C44.0673 25.8009 43.9875 25.5473 44.0141 25.2269C44.0141 24.9867 44.2137 24.7464 44.6129 24.5061C44.9856 24.2925 45.4779 24.119 46.0901 23.9855C46.649 24.1457 47.1681 24.2392 47.6471 24.2659C47.9665 24.3192 48.4722 24.3459 49.1643 24.3459C51.3202 24.3459 53.1034 23.772 54.5141 22.624C56.0046 21.4227 56.7498 19.8343 56.7498 17.8587C56.7498 17.1112 56.6167 16.3771 56.3506 15.6563C56.0844 14.9622 55.7384 14.3215 55.3125 13.7341C55.7384 13.3871 56.1243 13.2269 56.4703 13.2536C56.6833 13.2803 56.9894 13.4138 57.3886 13.6541C57.6015 13.7608 57.7612 13.8409 57.8677 13.8943C58.0806 14.0011 58.2935 14.0545 58.5065 14.0545C58.9057 14.0545 59.2384 13.8943 59.5046 13.574C59.7973 13.2803 59.9437 12.9199 59.9437 12.4928C59.9437 12.0923 59.7308 11.7586 59.3049 11.4917C58.9323 11.2514 58.5198 11.1313 58.0673 11.1313C57.5084 11.1313 56.9228 11.2914 56.3106 11.6118C55.6985 11.9321 55.1262 12.386 54.5939 12.9733C54.0616 12.4928 53.3962 12.119 52.5977 11.8521C51.5863 11.505 50.4418 11.3315 49.1643 11.3315ZM49.843 35.9989C47.3411 35.9989 45.3981 35.7052 44.0141 35.1179C42.7365 34.5573 42.0977 33.8231 42.0977 32.9155C42.0977 32.1413 42.497 31.4605 43.2954 30.8732C44.2004 30.1791 45.611 29.6318 47.5274 29.2314C48.3259 29.3115 49.1376 29.4182 49.9627 29.5517C50.4418 29.6051 51.0806 29.6986 51.8791 29.832L52.8373 29.9922C54.1414 30.1791 55.1395 30.5662 55.8316 31.1535C56.4703 31.6874 56.7897 32.3281 56.7897 33.0756C56.7897 33.8765 56.1243 34.5573 54.7935 35.1179C53.4627 35.7052 51.8125 35.9989 49.843 35.9989ZM49.1643 12.3326C50.7878 12.3326 52.0521 12.9066 52.957 14.0545C53.7555 15.0423 54.1548 16.297 54.1548 17.8187C54.1548 19.3137 53.7555 20.5684 52.957 21.5829C52.0521 22.7575 50.7878 23.3448 49.1643 23.3448C47.4875 23.3448 46.1966 22.7575 45.2916 21.5829C44.4932 20.5951 44.0939 19.3404 44.0939 17.8187C44.0939 16.297 44.4932 15.0423 45.2916 14.0545C46.1966 12.9066 47.4875 12.3326 49.1643 12.3326Z" fill="#FF9548"/>
<path d="M69.8129 1C69.0943 1 68.5487 1.21357 68.176 1.64071C67.83 2.01446 67.657 2.49499 67.657 3.08231C67.657 3.61624 67.83 4.07008 68.176 4.44383C68.5487 4.87097 69.0943 5.08454 69.8129 5.08454C70.4783 5.08454 71.0106 4.87097 71.4099 4.44383C71.7825 4.07008 71.9688 3.61624 71.9688 3.08231C71.9688 2.49499 71.7825 2.01446 71.4099 1.64071C71.0106 1.21357 70.4783 1 69.8129 1ZM65.8205 31.2336V30.1924C66.8053 30.1924 67.4973 30.059 67.8966 29.792C68.3224 29.525 68.5354 28.9911 68.5354 28.1902V15.6563C68.5354 15.0423 68.3624 14.5884 68.0164 14.2948C67.5905 13.9744 66.8453 13.8142 65.7806 13.8142L65.6608 13.2136L70.9707 11.3315V28.1902C70.9707 28.9911 71.157 29.525 71.5297 29.792C71.9023 30.059 72.6342 30.1924 73.7255 30.1924V31.2336H65.8205Z" fill="#FF9548"/>
<path d="M97.9673 26.5083C96.9293 27.8165 95.7981 28.7909 94.5738 29.4316C93.3228 30.099 91.8989 30.4327 90.3019 30.4327C88.1194 30.4327 86.376 29.7252 85.0719 28.3103C83.5814 26.6819 82.8361 24.2125 82.8361 20.9021H98.3266C98.3266 17.8854 97.5281 15.5228 95.9312 13.8142C94.3608 12.1591 92.2316 11.3315 89.5434 11.3315C86.7487 11.3315 84.473 12.3192 82.7163 14.2948C81.0395 16.2169 80.2011 18.6329 80.2011 21.5428C80.2011 24.6396 81.0662 27.1491 82.7962 29.0712C84.5529 30.9666 86.8684 31.9143 89.743 31.9143C91.8722 31.9143 93.6954 31.4338 95.2125 30.4727C96.4369 29.6986 97.5548 28.5506 98.5662 27.0289L97.9673 26.5083ZM95.6517 19.7408H82.8361C82.9426 17.6318 83.6479 15.8565 84.9521 14.4149C86.2297 13.0267 87.7468 12.3326 89.5034 12.3326C91.3665 12.3326 92.8171 12.9199 93.8551 14.0945C94.9198 15.3226 95.5186 17.2047 95.6517 19.7408Z" fill="#FF9548"/>
<path d="M113.665 11.6118H105.401V12.6529C106.2 12.6529 106.878 12.7864 107.437 13.0534C107.943 13.3204 108.449 13.7608 108.954 14.3749L114.743 21.4627L109.593 27.6696C108.688 28.7375 107.863 29.4316 107.118 29.7519C106.532 30.0456 105.734 30.1924 104.722 30.1924V31.2336H112.428V30.1924C111.15 30.1924 110.392 30.0456 110.152 29.7519C109.886 29.4583 110.019 28.911 110.551 28.1101L115.382 22.3437L120.652 28.8309C121.078 29.2581 121.078 29.6051 120.652 29.8721C120.413 30.0856 119.681 30.1924 118.456 30.1924V31.2336H127V30.1924C126.095 30.1924 125.39 30.0856 124.884 29.8721C124.352 29.6852 123.926 29.3382 123.606 28.8309L116.859 20.5017L121.93 14.2948C122.356 13.7075 122.901 13.2937 123.567 13.0534C124.259 12.7864 125.164 12.6529 126.281 12.6529V11.6118H118.776V12.6529C119.894 12.6529 120.599 12.7597 120.892 12.9733C121.158 13.1869 121.105 13.5606 120.732 14.0945L116.181 19.5806L111.709 14.0145C111.257 13.4805 111.177 13.1201 111.47 12.9333C111.736 12.7464 112.468 12.6529 113.665 12.6529V11.6118Z" fill="#FF9548"/>
<path d="M15.4125 31.4338C16.5038 31.327 17.3688 31.2469 18.0076 31.1935C18.7262 31.1402 19.6046 31.0868 20.6426 31.0334V30.1524C19.6844 30.1524 18.9924 29.9255 18.5665 29.4716C18.1407 29.0445 17.9278 28.3904 17.9278 27.5095V1.40044L12.0589 3.40267L12.2586 4.00334C13.5095 4.00334 14.3612 4.12347 14.8137 4.36374C15.2662 4.6307 15.4924 5.11123 15.4924 5.80534V13.614C14.8004 12.8932 14.0817 12.3593 13.3365 12.0122C12.3251 11.5584 11.0741 11.3315 9.58365 11.3315C6.76236 11.3315 4.57985 12.3993 3.03612 14.535C1.67871 16.4038 1 18.7798 1 21.663C1 24.4394 1.70532 26.7887 3.11597 28.7108C4.68631 30.8465 6.84221 31.9143 9.58365 31.9143C10.9943 31.9143 12.2319 31.6741 13.2966 31.1935C14.1483 30.7931 14.8536 30.2859 15.4125 29.6719V31.4338ZM15.4924 15.1357V28.1902L15.2529 28.3904C14.7205 29.0311 14.2015 29.485 13.6958 29.7519C12.8175 30.2592 11.7262 30.5128 10.4221 30.5128C8.18631 30.5128 6.46958 29.5918 5.27186 27.7497C4.23384 26.1746 3.71483 24.1457 3.71483 21.663C3.71483 19.1802 4.23384 17.1246 5.27186 15.4961C6.46958 13.6541 8.18631 12.733 10.4221 12.733C11.673 12.733 12.6977 12.9333 13.4962 13.3337C14.2148 13.7075 14.8802 14.3081 15.4924 15.1357Z" stroke="#FF9548" stroke-width="2" mask="url(#path-1-outside-1)"/>
<path d="M30.0726 1C29.354 1 28.8084 1.21357 28.4357 1.64071C28.0897 2.01446 27.9167 2.49499 27.9167 3.08231C27.9167 3.61624 28.0897 4.07008 28.4357 4.44383C28.8084 4.87097 29.354 5.08454 30.0726 5.08454C30.738 5.08454 31.2703 4.87097 31.6696 4.44383C32.0422 4.07008 32.2285 3.61624 32.2285 3.08231C32.2285 2.49499 32.0422 2.01446 31.6696 1.64071C31.2703 1.21357 30.738 1 30.0726 1ZM26.0802 31.2336V30.1924C27.065 30.1924 27.757 30.059 28.1563 29.792C28.5821 29.525 28.7951 28.9911 28.7951 28.1902V15.6563C28.7951 15.0423 28.6221 14.5884 28.276 14.2948C27.8502 13.9744 27.1049 13.8142 26.0403 13.8142L25.9205 13.2136L31.2304 11.3315V28.1902C31.2304 28.9911 31.4167 29.525 31.7894 29.792C32.162 30.059 32.8939 30.1924 33.9852 30.1924V31.2336H26.0802Z" stroke="#FF9548" stroke-width="2" mask="url(#path-1-outside-1)"/>
<path d="M49.1643 11.3315C46.9019 11.3315 45.0787 11.8921 43.6947 13.0133C42.2042 14.188 41.4589 15.7898 41.4589 17.8187C41.4589 19.1001 41.7916 20.2614 42.457 21.3026C43.0958 22.2903 43.9741 23.0512 45.092 23.5851C44.0806 23.9321 43.3221 24.2525 42.8163 24.5462C41.938 25.0534 41.4989 25.5873 41.4989 26.1479C41.4989 26.7086 41.7916 27.1757 42.3772 27.5495C43.0426 27.9766 44.1205 28.337 45.611 28.6307C44.1471 28.9511 42.8563 29.4449 41.7384 30.1123C40.381 30.9399 39.7023 31.8076 39.7023 32.7152C39.7023 34.1034 40.4342 35.158 41.8981 35.8788C43.4684 36.6263 45.8905 37 49.1643 37C52.1985 37 54.5407 36.6663 56.1909 35.9989C58.1072 35.2247 59.0654 34.01 59.0654 32.3548C59.0654 31.0734 58.5597 30.059 57.5483 29.3115C56.67 28.6707 55.4323 28.2169 53.8354 27.9499L50.1624 27.3493L45.611 26.6285C44.9456 26.495 44.4932 26.2814 44.2536 25.9878C44.0673 25.8009 43.9875 25.5473 44.0141 25.2269C44.0141 24.9867 44.2137 24.7464 44.6129 24.5061C44.9856 24.2925 45.4779 24.119 46.0901 23.9855C46.649 24.1457 47.1681 24.2392 47.6471 24.2659C47.9665 24.3192 48.4722 24.3459 49.1643 24.3459C51.3202 24.3459 53.1034 23.772 54.5141 22.624C56.0046 21.4227 56.7498 19.8343 56.7498 17.8587C56.7498 17.1112 56.6167 16.3771 56.3506 15.6563C56.0844 14.9622 55.7384 14.3215 55.3125 13.7341C55.7384 13.3871 56.1243 13.2269 56.4703 13.2536C56.6833 13.2803 56.9894 13.4138 57.3886 13.6541C57.6015 13.7608 57.7612 13.8409 57.8677 13.8943C58.0806 14.0011 58.2935 14.0545 58.5065 14.0545C58.9057 14.0545 59.2384 13.8943 59.5046 13.574C59.7973 13.2803 59.9437 12.9199 59.9437 12.4928C59.9437 12.0923 59.7308 11.7586 59.3049 11.4917C58.9323 11.2514 58.5198 11.1313 58.0673 11.1313C57.5084 11.1313 56.9228 11.2914 56.3106 11.6118C55.6985 11.9321 55.1262 12.386 54.5939 12.9733C54.0616 12.4928 53.3962 12.119 52.5977 11.8521C51.5863 11.505 50.4418 11.3315 49.1643 11.3315ZM49.843 35.9989C47.3411 35.9989 45.3981 35.7052 44.0141 35.1179C42.7365 34.5573 42.0977 33.8231 42.0977 32.9155C42.0977 32.1413 42.497 31.4605 43.2954 30.8732C44.2004 30.1791 45.611 29.6318 47.5274 29.2314C48.3259 29.3115 49.1376 29.4182 49.9627 29.5517C50.4418 29.6051 51.0806 29.6986 51.8791 29.832L52.8373 29.9922C54.1414 30.1791 55.1395 30.5662 55.8316 31.1535C56.4703 31.6874 56.7897 32.3281 56.7897 33.0756C56.7897 33.8765 56.1243 34.5573 54.7935 35.1179C53.4627 35.7052 51.8125 35.9989 49.843 35.9989ZM49.1643 12.3326C50.7878 12.3326 52.0521 12.9066 52.957 14.0545C53.7555 15.0423 54.1548 16.297 54.1548 17.8187C54.1548 19.3137 53.7555 20.5684 52.957 21.5829C52.0521 22.7575 50.7878 23.3448 49.1643 23.3448C47.4875 23.3448 46.1966 22.7575 45.2916 21.5829C44.4932 20.5951 44.0939 19.3404 44.0939 17.8187C44.0939 16.297 44.4932 15.0423 45.2916 14.0545C46.1966 12.9066 47.4875 12.3326 49.1643 12.3326Z" stroke="#FF9548" stroke-width="2" mask="url(#path-1-outside-1)"/>
<path d="M69.8129 1C69.0943 1 68.5487 1.21357 68.176 1.64071C67.83 2.01446 67.657 2.49499 67.657 3.08231C67.657 3.61624 67.83 4.07008 68.176 4.44383C68.5487 4.87097 69.0943 5.08454 69.8129 5.08454C70.4783 5.08454 71.0106 4.87097 71.4099 4.44383C71.7825 4.07008 71.9688 3.61624 71.9688 3.08231C71.9688 2.49499 71.7825 2.01446 71.4099 1.64071C71.0106 1.21357 70.4783 1 69.8129 1ZM65.8205 31.2336V30.1924C66.8053 30.1924 67.4973 30.059 67.8966 29.792C68.3224 29.525 68.5354 28.9911 68.5354 28.1902V15.6563C68.5354 15.0423 68.3624 14.5884 68.0164 14.2948C67.5905 13.9744 66.8453 13.8142 65.7806 13.8142L65.6608 13.2136L70.9707 11.3315V28.1902C70.9707 28.9911 71.157 29.525 71.5297 29.792C71.9023 30.059 72.6342 30.1924 73.7255 30.1924V31.2336H65.8205Z" stroke="#FF9548" stroke-width="2" mask="url(#path-1-outside-1)"/>
<path d="M97.9673 26.5083C96.9293 27.8165 95.7981 28.7909 94.5738 29.4316C93.3228 30.099 91.8989 30.4327 90.3019 30.4327C88.1194 30.4327 86.376 29.7252 85.0719 28.3103C83.5814 26.6819 82.8361 24.2125 82.8361 20.9021H98.3266C98.3266 17.8854 97.5281 15.5228 95.9312 13.8142C94.3608 12.1591 92.2316 11.3315 89.5434 11.3315C86.7487 11.3315 84.473 12.3192 82.7163 14.2948C81.0395 16.2169 80.2011 18.6329 80.2011 21.5428C80.2011 24.6396 81.0662 27.1491 82.7962 29.0712C84.5529 30.9666 86.8684 31.9143 89.743 31.9143C91.8722 31.9143 93.6954 31.4338 95.2125 30.4727C96.4369 29.6986 97.5548 28.5506 98.5662 27.0289L97.9673 26.5083ZM95.6517 19.7408H82.8361C82.9426 17.6318 83.6479 15.8565 84.9521 14.4149C86.2297 13.0267 87.7468 12.3326 89.5034 12.3326C91.3665 12.3326 92.8171 12.9199 93.8551 14.0945C94.9198 15.3226 95.5186 17.2047 95.6517 19.7408Z" stroke="#FF9548" stroke-width="2" mask="url(#path-1-outside-1)"/>
<path d="M113.665 11.6118H105.401V12.6529C106.2 12.6529 106.878 12.7864 107.437 13.0534C107.943 13.3204 108.449 13.7608 108.954 14.3749L114.743 21.4627L109.593 27.6696C108.688 28.7375 107.863 29.4316 107.118 29.7519C106.532 30.0456 105.734 30.1924 104.722 30.1924V31.2336H112.428V30.1924C111.15 30.1924 110.392 30.0456 110.152 29.7519C109.886 29.4583 110.019 28.911 110.551 28.1101L115.382 22.3437L120.652 28.8309C121.078 29.2581 121.078 29.6051 120.652 29.8721C120.413 30.0856 119.681 30.1924 118.456 30.1924V31.2336H127V30.1924C126.095 30.1924 125.39 30.0856 124.884 29.8721C124.352 29.6852 123.926 29.3382 123.606 28.8309L116.859 20.5017L121.93 14.2948C122.356 13.7075 122.901 13.2937 123.567 13.0534C124.259 12.7864 125.164 12.6529 126.281 12.6529V11.6118H118.776V12.6529C119.894 12.6529 120.599 12.7597 120.892 12.9733C121.158 13.1869 121.105 13.5606 120.732 14.0945L116.181 19.5806L111.709 14.0145C111.257 13.4805 111.177 13.1201 111.47 12.9333C111.736 12.7464 112.468 12.6529 113.665 12.6529V11.6118Z" stroke="#FF9548" stroke-width="2" mask="url(#path-1-outside-1)"/>
</svg>
