<svg width="111" height="108" viewBox="0 0 111 108" fill="none" xmlns="http://www.w3.org/2000/svg">
<path d="M1 1H12.9843C17.7509 1 21.8549 4.36428 22.79 9.03824L26.231 26.2381M26.2273 26.2381H26.231M26.231 26.2381L34.7036 68.5876C35.165 70.9115 36.4287 72.999 38.2735 74.4847C40.1183 75.9704 42.4267 76.7597 44.7945 76.7143H93.8364C96.2042 76.7597 98.5126 75.9704 100.357 74.4847C102.202 72.999 103.466 70.9115 103.927 68.5876L109.737 38.1106C110.912 31.9479 106.187 26.2381 99.9137 26.2381H26.231ZM46.4091 101.952C46.4091 104.74 44.1502 107 41.3636 107C38.5771 107 36.3182 104.74 36.3182 101.952C36.3182 99.1647 38.5771 96.9048 41.3636 96.9048C44.1502 96.9048 46.4091 99.1647 46.4091 101.952ZM101.909 101.952C101.909 104.74 99.6502 107 96.8636 107C94.0771 107 91.8182 104.74 91.8182 101.952C91.8182 99.1647 94.0771 96.9048 96.8636 96.9048C99.6502 96.9048 101.909 99.1647 101.909 101.952Z" stroke="#FCFAF8" stroke-linecap="round" stroke-linejoin="round"/>
</svg>
